<?xml version="1.0" encoding="UTF-8"?>
<svg version="1.1" xmlns="http://www.w3.org/2000/svg" width="1254" height="1254">
<path d="M0 0 C413.82 0 827.64 0 1254 0 C1254 413.82 1254 827.64 1254 1254 C840.18 1254 426.36 1254 0 1254 C0 840.18 0 426.36 0 0 Z " fill="#000000" transform="translate(0,0)"/>
<path d="M0 0 C7.93012336 0.02134868 15.86019952 0.01863288 23.79034455 0.01545512 C38.41742371 0.01023763 53.04442981 0.02341858 67.67148774 0.04752475 C82.12913051 0.07128999 96.58674276 0.086608 111.04440492 0.090936 C112.39882587 0.09134844 112.39882587 0.09134844 113.78060886 0.09176921 C118.36725356 0.09312277 122.9538983 0.09432822 127.54054306 0.09547671 C159.92717228 0.10385177 192.31376188 0.13072644 224.70036882 0.16868716 C256.14014534 0.20549524 287.57991097 0.2337951 319.01970475 0.25071841 C319.99085137 0.25124452 320.96199799 0.25177062 321.9625733 0.25231267 C331.7162863 0.25758729 341.46999938 0.26269047 351.22371254 0.26766811 C371.08860236 0.27780971 390.95349149 0.28909472 410.81838029 0.30107242 C412.1880549 0.30189616 412.1880549 0.30189616 413.58539971 0.30273654 C474.43819235 0.33946512 535.29096298 0.40283703 596.14372819 0.47044498 C595.18337305 1.59606339 594.2222822 2.72105415 593.26087939 3.84577787 C592.45818618 4.78559712 592.45818618 4.78559712 591.63927694 5.74440262 C590.04176052 7.58812787 588.38853864 9.34638758 586.6599788 11.06771976 C585.7288099 11.99878291 585.7288099 11.99878291 584.77882951 12.94865542 C584.11944383 13.60287478 583.46005815 14.25709415 582.78069108 14.93113833 C581.71359658 15.99604243 581.71359658 15.99604243 580.62494462 17.08245975 C579.0906821 18.61293749 577.55526612 20.14225963 576.01880639 21.67053157 C573.58184318 24.0946479 571.14809032 26.52194704 568.71512406 28.95007449 C562.67306153 34.97881705 556.62556966 41.00210394 550.57823747 47.02555972 C545.46176122 52.12224856 540.34737519 57.22101778 535.23570626 62.32252818 C532.84764957 64.70414167 530.45658131 67.08270254 528.06537431 69.46115237 C526.58882015 70.93407092 525.11240794 72.40713179 523.63615983 73.88035708 C522.97879838 74.53255221 522.32143693 75.18474734 521.64415544 75.85670596 C515.69568304 81.8045059 510.22253499 87.97175127 505.19070548 94.71654248 C482.94172883 124.53914241 456.15376106 159.13877658 417.3620679 165.27897629 C391.14017646 168.82834521 364.38660265 167.84572142 338.01863549 166.84811662 C328.72411297 166.50671084 319.43803815 166.33671363 310.13839524 166.28615695 C309.46928203 166.28244127 308.80016883 166.2787256 308.11077946 166.27489732 C304.70966665 166.25678715 301.30854726 166.2413161 297.90741714 166.22687146 C274.04866726 166.12099345 250.20593722 165.69556555 226.35564225 165.06858951 C203.2886076 164.46303521 180.22608951 164.002843 157.15251725 163.73753482 C156.43771994 163.72925592 155.72292263 163.72097701 154.98646479 163.71244724 C147.09015741 163.62118388 139.19380756 163.53413102 131.29742759 163.44940263 C117.34266118 163.29960866 103.38807837 163.13493863 89.43358415 162.96171695 C88.75847162 162.95338372 88.0833591 162.94505049 87.38778862 162.93646474 C66.85336741 162.68228395 46.32227991 162.32579186 25.79088395 161.88688785 C23.29052903 161.83417482 20.79017379 161.78147698 18.28981822 161.72879487 C7.79613578 161.50593968 -2.69720751 161.27589314 -13.19001117 161.01466541 C-17.36656748 160.91276254 -21.54329789 160.8202065 -25.72011486 160.72968897 C-27.61749468 160.68630663 -29.51478448 160.63871368 -31.41193459 160.58623841 C-80.50474396 159.23201877 -131.21651388 175.02853574 -167.85627181 208.47044498 C-169.20884561 209.61815814 -170.56282964 210.76421327 -171.91877181 211.90794498 C-204.28775772 240.68790107 -224.8608703 279.38571136 -233.85627181 321.47044498 C-234.05422347 322.35385562 -234.25217513 323.23726626 -234.45612533 324.14744693 C-236.40376861 333.98967633 -236.20780427 343.91749846 -236.16877181 353.90794498 C-236.16653609 355.31232318 -236.16653609 355.31232318 -236.16425521 356.74507266 C-236.12560226 370.214903 -235.65784656 383.25546974 -232.85627181 396.47044498 C-232.6083703 397.83730584 -232.36225968 399.2044928 -232.11799056 400.57200748 C-225.56525489 434.53336676 -207.0357176 465.89752565 -183.94611556 491.15794498 C-182.1727034 493.12030012 -180.47476936 495.11705906 -178.79377181 497.15794498 C-175.48668668 501.02069211 -171.77753673 504.24376805 -167.85627181 507.47044498 C-166.8804515 508.28384341 -165.90463118 509.09724185 -164.89924056 509.93528873 C-142.64373094 528.16037781 -117.49453896 540.70608642 -89.85627181 548.47044498 C-88.74252181 548.79528873 -87.62877181 549.12013248 -86.48127181 549.45481998 C-80.61758302 551.05104637 -74.65784701 552.09515673 -68.66877181 553.09544498 C-67.59236434 553.28058658 -67.59236434 553.28058658 -66.49421126 553.46946841 C-50.42203607 555.99512093 -33.98755799 555.62093356 -17.76935775 555.62815982 C-15.38715975 555.63283889 -13.00496264 555.63798422 -10.62276656 555.64355594 C-5.52442199 555.65475998 -0.42608301 555.66323072 4.67226976 555.66967517 C12.7530082 555.6804424 20.83370485 555.70069021 28.91441911 555.72279483 C31.69176655 555.73027127 34.46911415 555.73768547 37.2464618 555.7450822 C37.94023872 555.74693276 38.63401564 555.74878333 39.34881611 555.75068997 C47.21518271 555.77154307 55.08155363 555.79040707 62.94792741 555.8083356 C64.02429527 555.81079287 64.02429527 555.81079287 65.12240794 555.81329979 C76.74364791 555.83957031 88.364891 555.85822896 99.98614808 555.8749275 C111.97286595 555.89242679 123.95952262 555.92134877 135.94619148 555.95981687 C142.65414796 555.98096692 149.36201283 555.99632775 156.07000535 555.99862414 C162.3837826 556.00078859 168.69737878 556.01683916 175.0111007 556.04301387 C177.31146613 556.05013847 179.61185366 556.05234162 181.91222756 556.04891139 C200.18476827 556.0260402 217.80134993 557.73938046 235.64372819 561.78294498 C236.58748307 561.99314273 237.53123796 562.20334048 238.50359147 562.41990787 C269.39610282 569.46199976 299.11696346 580.69519101 327.14372819 595.47044498 C328.56154231 596.20772159 329.97951687 596.94468972 331.39763444 597.68138248 C349.23480069 606.99371103 366.49200269 617.15945583 383.14372819 628.47044498 C383.7296071 628.86570376 384.315486 629.26096255 384.91911882 629.66819888 C393.92430879 635.7478808 402.73167421 642.05985186 411.46013444 648.53025943 C420.45503487 655.54962895 420.45503487 655.54962895 430.14372819 661.47044498 C430.14372819 662.13044498 430.14372819 662.79044498 430.14372819 663.47044498 C430.67868913 663.70505435 431.21365007 663.93966373 431.76482194 664.18138248 C434.82960488 665.8421023 437.47958122 667.94293542 440.20622819 670.09544498 C445.43252476 674.18513585 450.74689222 678.08434518 456.19450944 681.87669498 C456.83775163 682.40263248 457.48099382 682.92856998 458.14372819 683.47044498 C458.14372819 684.13044498 458.14372819 684.79044498 458.14372819 685.47044498 C459.19947038 685.81269107 459.19947038 685.81269107 460.27654069 686.16185123 C463.7102986 687.72902956 466.23711608 689.9181798 469.01872819 692.40794498 C474.59247137 697.28527678 480.40082358 701.69671912 486.46941178 705.94090396 C488.06090974 707.07183778 489.6074126 708.26561657 491.14372819 709.47044498 C491.14372819 710.13044498 491.14372819 710.79044498 491.14372819 711.47044498 C401.05372819 711.47044498 310.96372819 711.47044498 218.14372819 711.47044498 C218.26228575 787.21901254 218.26228575 787.21901254 218.41399186 862.96751529 C218.42754167 877.69456607 218.42754167 877.69456607 218.43005937 884.61222964 C218.43282843 889.39270927 218.44396605 894.17308662 218.46045487 898.95353824 C218.71551139 976.37459484 203.399331 1044.1047259 148.14372819 1101.47044498 C147.56074967 1102.08065494 146.97777116 1102.6908649 146.37712663 1103.31956607 C137.85580394 1112.2014237 129.03343313 1120.14921953 119.14372819 1127.47044498 C118.19884538 1128.18716373 117.25396257 1128.90388248 116.28044694 1129.64231998 C77.4816807 1158.61506003 29.92100599 1174.91447008 -18.44712264 1174.71095401 C-20.03008247 1174.71182916 -21.61304202 1174.71358578 -23.19600005 1174.71613234 C-27.48796809 1174.72054925 -31.77983403 1174.71268142 -36.07178909 1174.70257622 C-40.7218226 1174.69386118 -45.37185131 1174.69686752 -50.02189071 1174.69838077 C-58.05922862 1174.69942457 -66.09653383 1174.69320104 -74.13386352 1174.68190509 C-85.75419153 1174.66558418 -97.37450387 1174.66043537 -108.9948421 1174.65792911 C-127.85246954 1174.6535623 -146.71007959 1174.64028083 -165.56769759 1174.62132388 C-183.87563942 1174.60293875 -202.18357651 1174.58879516 -220.49152572 1174.58030826 C-221.62185501 1174.57978281 -222.75218431 1174.57925736 -223.91676601 1174.57871599 C-229.58784164 1174.57610574 -235.2589173 1174.57357836 -240.92999298 1174.57109219 C-287.9054313 1174.55039129 -334.88085065 1174.51519353 -381.85627181 1174.47044498 C-380.07873248 1170.6414888 -377.65554364 1168.02764564 -374.65705306 1165.11106998 C-374.14377959 1164.60299808 -373.63050612 1164.09492618 -373.10167891 1163.57145816 C-371.46207482 1161.94960848 -369.81596028 1160.33458837 -368.16877181 1158.72044498 C-366.54025143 1157.11979777 -364.91331145 1155.51762523 -363.28942306 1153.91227847 C-362.28156489 1152.91640101 -361.27105302 1151.92319803 -360.25722701 1150.93339664 C-357.61514832 1148.32775867 -355.12668847 1145.65112917 -352.71442611 1142.83079654 C-348.34658236 1137.7892556 -343.61725785 1133.11892735 -338.88512618 1128.42413455 C-337.22514122 1126.77710615 -335.56846946 1125.12680545 -333.91254622 1123.475694 C-329.80214958 1119.37854945 -325.68628147 1115.28691593 -321.57056624 1111.19511539 C-318.0810896 1107.72548773 -314.59375073 1104.253737 -311.1091252 1100.77923709 C-309.4900041 1099.16651915 -307.86786397 1097.55688279 -306.24555404 1095.94737369 C-300.22002184 1089.96319572 -300.22002184 1089.96319572 -294.53840072 1083.65477115 C-288.86897533 1077.03226572 -282.52046701 1071.01288728 -276.34845931 1064.86497623 C-274.9353266 1063.45371242 -273.52241735 1062.04222484 -272.1097203 1060.63052493 C-268.40839229 1056.93299417 -264.7040728 1053.23847489 -260.99909408 1049.54460269 C-257.23222649 1045.78797446 -253.46819249 1042.02850946 -249.70392806 1038.2692731 C-243.62523326 1032.19934138 -237.54483675 1026.13112077 -231.46213729 1020.06520206 C-228.25770359 1016.86942003 -225.05565042 1013.67128807 -221.85627181 1010.47044498 C-220.04500855 1008.65918171 -217.55088905 1009.34089798 -215.13906706 1009.32917684 C-214.31108475 1009.33024509 -213.48310243 1009.33131335 -212.63002974 1009.33241397 C-211.75700593 1009.32959269 -210.88398212 1009.32677141 -209.98450304 1009.32386464 C-207.03525637 1009.31547787 -204.08604704 1009.31417687 -201.13678939 1009.31273013 C-199.03130429 1009.30806457 -196.92582021 1009.30292144 -194.82033736 1009.29733401 C-190.27227122 1009.28602765 -185.72421174 1009.27760545 -181.17613608 1009.27121478 C-173.9765281 1009.26055066 -166.77696739 1009.24030694 -159.57738692 1009.21809512 C-139.09916307 1009.15612761 -118.62094095 1009.10224681 -98.14264876 1009.06907779 C-86.84304017 1009.05069493 -75.54350978 1009.02170655 -64.24395872 1008.98107308 C-58.2653682 1008.96005194 -52.28687609 1008.94455287 -46.30824668 1008.94226581 C-40.67347482 1008.94010807 -35.03890728 1008.92412428 -29.40419776 1008.89787608 C-27.34440306 1008.89072238 -25.28458349 1008.88856287 -23.2247792 1008.89197856 C1.03736317 1008.92576083 23.53387758 1004.11851779 41.76482194 986.85325748 C48.69609568 979.91060233 54.47764412 973.12485788 59.14372819 964.47044498 C59.64646257 963.61450748 60.14919694 962.75856998 60.66716569 961.87669498 C69.62982335 945.68021717 70.88564277 928.04999907 70.80315202 909.91282779 C70.81162861 907.7325563 70.8222833 905.55229238 70.83492082 903.37204104 C70.86279486 897.51999834 70.86064422 891.66832556 70.85262697 885.81623679 C70.84947881 879.675671 70.87460341 873.53521835 70.89658158 867.39470035 C70.93387317 855.79661607 70.94616073 844.198649 70.94920599 832.60051065 C70.95391304 819.38379732 70.98688899 806.16720022 71.02210384 792.95053845 C71.0938435 765.79052134 71.13052388 738.63054924 71.14372819 711.47044498 C70.50374296 711.47441854 69.86375773 711.4783921 69.20437902 711.48248607 C56.87558846 711.55855727 44.54692616 711.62940928 32.21794694 711.66575748 C24.24337549 711.68938218 16.26903732 711.71686721 8.2946071 711.77220279 C-42.92517459 712.11790611 -42.92517459 712.11790611 -66.79377181 709.64231998 C-67.59362502 709.5599232 -68.39347823 709.47752643 -69.21756942 709.39263278 C-77.67966913 708.49005208 -85.93156689 707.18386379 -94.19733626 705.09916812 C-96.52389882 704.5490368 -98.73153319 704.20046612 -101.10627181 703.97044498 C-104.86193876 703.46968938 -107.9728312 702.47962697 -111.52033431 701.22044498 C-113.87782693 700.46352427 -116.17129329 699.97423558 -118.60627181 699.53294498 C-123.74772599 698.57639536 -128.63916627 697.05985226 -133.61799056 695.47435123 C-136.59861092 694.55032296 -139.58382835 693.74402141 -142.60627181 692.97044498 C-146.82703359 691.84042916 -150.66664689 690.35454529 -154.61799056 688.50169498 C-156.96030348 687.42251415 -159.32920857 686.47107361 -161.73127181 685.53294498 C-166.28757473 683.73440435 -170.7236683 681.7255241 -175.16877181 679.66966373 C-177.54278756 678.61032821 -179.91940457 677.68407817 -182.35627181 676.78294498 C-195.53094649 671.59292162 -207.95889464 664.07511984 -219.85627181 656.47044498 C-220.72767806 655.93290591 -221.59908431 655.39536685 -222.49689681 654.84153873 C-234.79693275 647.20004933 -246.76963205 638.79015152 -257.85627181 629.47044498 C-258.36158431 629.04859927 -258.86689681 628.62675357 -259.38752181 628.19212466 C-290.99412293 601.74768658 -317.04840395 571.44109674 -338.85627181 536.47044498 C-339.46003646 535.51645816 -339.46003646 535.51645816 -340.07599837 534.54319888 C-387.40987651 459.36244804 -401.11819105 364.70029043 -382.27424056 278.41185123 C-379.93448645 268.29748111 -376.95748234 258.37321686 -373.85627181 248.47044498 C-373.53191146 247.40890201 -373.53191146 247.40890201 -373.20099837 246.32591373 C-357.46950814 194.91718359 -328.15652194 147.88998243 -290.85627181 109.47044498 C-290.13326888 108.72552798 -289.41026595 107.98061099 -288.66535384 107.21312076 C-280.10232915 98.43243816 -271.56390949 89.98357743 -261.85627181 82.47044498 C-260.10388381 81.01498202 -258.35396247 79.55654507 -256.60627181 78.09544498 C-237.32181703 62.39122653 -215.79824359 47.2401161 -192.85627181 37.47044498 C-190.9550035 36.48081734 -189.05945202 35.48015403 -187.16877181 34.47044498 C-128.48118731 4.4346017 -64.56222282 -0.18080052 0 0 Z " fill="#960EFA" transform="translate(420.8562718098983,38.52955502457917)"/>
<path d="M0 0 C60.42974237 -0.05146098 120.85948723 -0.09915354 181.28924561 -0.12702942 C182.18479256 -0.12744359 183.08033951 -0.12785776 184.00302425 -0.12828448 C203.46950231 -0.13726492 222.93598059 -0.14557522 242.40245922 -0.15319599 C251.94994682 -0.15693773 261.49743436 -0.16082743 271.04492188 -0.16479492 C272.46999445 -0.16538334 272.46999445 -0.16538334 273.92385637 -0.16598364 C304.67230585 -0.17874901 335.42073869 -0.20126893 366.1691781 -0.22889166 C397.78878841 -0.25724516 429.40838952 -0.27566922 461.02801233 -0.28174497 C465.50244719 -0.28260933 469.97688201 -0.28358624 474.45131683 -0.28463173 C475.331879 -0.284834 476.21244116 -0.28503627 477.11968702 -0.28524467 C491.24763418 -0.28877854 505.37555278 -0.3026621 519.50348833 -0.3204961 C533.7350941 -0.33823719 547.9666718 -0.3448842 562.19828823 -0.34050413 C570.6352243 -0.33823657 579.07205694 -0.34417741 587.50897417 -0.36239263 C593.1685308 -0.37376744 598.82802088 -0.37390466 604.48758238 -0.36549544 C607.69716666 -0.36103079 610.90652251 -0.36261767 614.11609259 -0.37464955 C637.23423033 -0.45617955 660.36440219 0.93340035 682.875 6.5 C683.56870697 6.6675177 684.26241394 6.8350354 684.97714233 7.00762939 C713.53606357 13.9432697 741.26233057 25.05569339 766 41 C766.62068359 41.39687012 767.24136719 41.79374023 767.88085938 42.20263672 C781.22295311 50.77435392 793.35310673 60.1314168 804.859375 71.046875 C807.19652408 73.26261374 809.58601359 75.37722979 812.0625 77.4375 C827.0316058 90.38288549 838.9021559 106.76169616 850 123 C850.4021875 123.58620117 850.804375 124.17240234 851.21875 124.77636719 C887.96675276 178.78189555 903.55977962 244.52178195 903.3125 309.25 C903.31100952 310.22657562 903.30951904 311.20315125 903.3079834 312.20932007 C903.26572879 327.68033972 902.46453844 342.70475136 900 358 C899.69469773 360.04027269 899.39002046 362.08063898 899.0859375 364.12109375 C890.11233616 422.49585369 867.37735577 480.79515604 829.28466797 526.45507812 C828.00669564 527.99194793 826.75516871 529.55068186 825.50390625 531.109375 C819.31408855 538.6952626 812.5219482 545.70534663 805.63851929 552.65802002 C804.60762322 553.6993562 803.57890372 554.74285279 802.55264282 555.78875732 C795.19185806 563.27131171 787.44722451 569.77846105 779 576 C778.18974365 576.61149902 777.3794873 577.22299805 776.54467773 577.85302734 C767.09131009 584.98179639 757.48720499 591.39048053 747.01953125 596.92626953 C744.91792946 598.0436347 742.83364586 599.18937899 740.75 600.33984375 C732.80052369 604.69032133 724.8375176 608.48504341 716.3671875 611.7109375 C714.12660212 612.56870221 711.90642735 613.48184733 709.7109375 614.44921875 C698.21932387 619.41839278 685.78680061 622.83904502 673.5625 625.4375 C672.80098633 625.60113037 672.03947266 625.76476074 671.25488281 625.93334961 C666.75348387 626.83372983 662.58919419 627.15115923 658 627 C658.52207031 627.63164063 659.04414062 628.26328125 659.58203125 628.9140625 C663.95362043 634.22734252 668.26224669 639.57975639 672.5 645 C677.24903996 651.07082724 682.0975948 657.05209979 687 663 C688.50071175 664.83275076 690.00070638 666.66608895 691.5 668.5 C693.70228166 671.19209947 695.90488636 673.88392614 698.109375 676.57421875 C703.15325065 682.73179688 708.17596456 688.90629891 713.19335938 695.08544922 C717.7818077 700.7349426 722.38705127 706.37049405 727 712 C728.50014281 713.83321648 730.00014082 715.66655146 731.5 717.5 C732.2425 718.4075 732.985 719.315 733.75 720.25 C749.5 739.5 749.5 739.5 751.765625 742.26953125 C753.21297051 744.03822795 754.66085301 745.80648543 756.109375 747.57421875 C759.44973339 751.65213803 762.78578997 755.73334922 766.10546875 759.828125 C767.21611388 761.19794257 768.32679158 762.56773375 769.4375 763.9375 C769.99518066 764.62529541 770.55286133 765.31309082 771.12744141 766.02172852 C774.42726601 770.08464358 777.75896494 774.11679609 781.125 778.125 C784.6997939 782.38925983 788.15085677 786.73075153 791.5625 791.125 C795.50032214 796.19313571 799.62733336 800.99924182 803.96875 805.73046875 C806.44034824 808.49200448 808.68379271 811.38234672 810.9296875 814.328125 C813.68920461 817.88946406 816.53062664 821.38127463 819.375 824.875 C819.93501709 825.56360107 820.49503418 826.25220215 821.07202148 826.96166992 C823.65149299 830.12975069 826.23730951 833.2922379 828.83984375 836.44140625 C829.65582031 837.43011719 830.47179688 838.41882812 831.3125 839.4375 C832.03050781 840.30246094 832.74851562 841.16742187 833.48828125 842.05859375 C835 844 835 844 835 845 C812.66870229 845.35103247 790.33786195 845.61521851 768.00436115 845.77718258 C757.63339606 845.85439917 747.26414903 845.9595865 736.89428711 846.1315918 C727.85146325 846.28151344 718.80988384 846.37796763 709.76585168 846.41132742 C704.98012811 846.43081855 700.19796315 846.47631517 695.41338539 846.58595085 C663.95160994 847.27953775 663.95160994 847.27953775 656.84140015 841.73880005 C653.88808554 838.74445887 651.77149958 835.55556336 649.92162132 831.79118538 C648.59141692 829.20591243 646.77507053 827.12270334 644.875 824.9375 C643.16660292 822.77424668 641.46927492 820.60273842 639.77587891 818.42773438 C633.87218792 810.84757875 627.86217395 803.39835193 621.625 796.08984375 C617.67394104 791.45572525 613.84287672 786.72382499 610 782 C608.58375089 780.27049133 607.16707527 778.54133183 605.75 776.8125 C600.37971228 770.248815 595.0350469 763.66436172 589.68945312 757.08056641 C586.96041309 753.71974572 584.23015975 750.3599111 581.5 747 C580.41666054 745.66667165 579.33332721 744.33333831 578.25 743 C577.71375 742.34 577.1775 741.68 576.625 741 C571.74999999 734.99999999 571.74999999 734.99999999 570.12524414 733.00024414 C569.04117052 731.66603727 567.95702331 730.33189019 566.87280273 728.99780273 C564.17519109 725.67831933 561.47883892 722.35782897 558.78515625 719.03515625 C557.71104879 717.71084723 556.63682985 716.38662862 555.5625 715.0625 C555.03027832 714.40652832 554.49805664 713.75055664 553.94970703 713.07470703 C550.5414866 708.88021045 547.10984611 704.70586269 543.66577148 700.54077148 C538.42035647 694.1969301 533.24629409 687.81217653 528.18969727 681.31689453 C523.8858018 675.80885338 519.43719105 670.42379252 514.98266602 665.03735352 C511.31914214 660.60649378 507.69566849 656.14841574 504.1171875 651.6484375 C495.09342826 640.36041395 485.93791482 629.17098969 476.72265625 618.0390625 C470.66905472 610.72034309 464.67150595 603.37093794 458.828125 595.88305664 C455.4230209 591.52309204 451.94483543 587.22899928 448.4296875 582.95703125 C445.52311789 579.41961454 442.63574509 575.86690895 439.75 572.3125 C439.19771729 571.6326001 438.64543457 570.9527002 438.07641602 570.25219727 C435.30593577 566.84123611 432.53688858 563.42912025 429.76953125 560.015625 C422.95502858 551.61370012 416.0991791 543.24713892 409.21484375 534.90234375 C406.56912922 531.69427004 403.93805139 528.47460768 401.3125 525.25 C398.58535135 521.90785664 395.81977399 518.6038871 393.02001953 515.32275391 C388.55338342 510.08692459 384.18891224 504.78761887 379.9375 499.375 C379.47230957 498.78291748 379.00711914 498.19083496 378.52783203 497.58081055 C376.59250533 495.10101577 374.7458358 492.6187537 373 490 C374.13784376 489.99668985 375.27568752 489.99337971 376.4480114 489.98996925 C404.19381792 489.90880749 431.93957014 489.81644138 459.68530083 489.71247292 C462.36165223 489.70248251 465.03800379 489.69253348 467.71435547 489.68261719 C468.71211965 489.6789182 468.71211965 489.6789182 469.73004068 489.67514448 C479.79967012 489.63800114 489.8693072 489.6065093 499.93896484 489.578125 C511.64035084 489.54508034 523.34169047 489.50518107 535.04302514 489.45720994 C541.23300526 489.43206847 547.42295511 489.41025137 553.61297226 489.39665604 C559.45208182 489.38372277 565.29108689 489.36154968 571.1301384 489.33261681 C573.26081708 489.3236283 575.39151255 489.31787151 577.52220917 489.31578636 C590.16043604 489.3012173 602.47156419 488.68551421 615 487 C615.99727552 486.87617762 616.99455105 486.75235523 618.02204704 486.62478065 C639.80790137 483.73339227 663.18310306 471.81084116 680 458 C680.85722656 457.34128906 681.71445312 456.68257812 682.59765625 456.00390625 C720.56944881 426.2274646 742.69014089 380.47004616 748.61621094 333.07958984 C749.4007075 325.4914232 749.44039225 317.87181363 749.4375 310.25 C749.43823517 309.40094086 749.43897034 308.55188171 749.43972778 307.67709351 C749.37648075 279.69274085 743.39321166 253.62148237 730.04150391 228.93554688 C728.9861254 226.97421524 727.96722884 224.99656537 726.94921875 223.015625 C721.84930027 213.31008965 715.60727052 204.99509448 708.46142578 196.69921875 C707.21630803 195.25150416 705.99429867 193.78396746 704.77734375 192.3125 C700.57329474 187.34015456 695.92330728 183.26191335 690.8125 179.234375 C689.04661348 177.83147627 687.31126106 176.38829107 685.625 174.890625 C668.39052893 159.75522413 647.2293943 149.90778835 625 145 C625 144.34 625 143.68 625 143 C624.3709375 142.93941406 623.741875 142.87882813 623.09375 142.81640625 C622.2378125 142.73261719 621.381875 142.64882813 620.5 142.5625 C619.24703125 142.44068359 619.24703125 142.44068359 617.96875 142.31640625 C615.74351804 142.07924337 613.52321847 141.79500621 611.30663717 141.48731995 C607.24235687 140.97922525 603.21773375 140.86505162 599.12505531 140.88647461 C597.99377882 140.88625583 597.99377882 140.88625583 596.83964825 140.88603264 C594.32215734 140.8867314 591.8047402 140.89457051 589.28726196 140.90234375 C587.4601983 140.90422258 585.6331341 140.90563531 583.80606973 140.90662289 C579.83858032 140.90970595 575.87111243 140.91592695 571.90363121 140.92454338 C565.44781643 140.93849023 558.99200512 140.94544017 552.53617859 140.9513092 C545.58311423 140.95794509 538.63005196 140.96507544 531.67699075 140.97449589 C514.44255801 140.9976841 497.20817159 141.00465115 479.97372437 141.00170898 C478.72711008 141.00152657 477.48049579 141.00134415 476.19610532 141.00115621 C465.93148054 140.99962555 455.6668559 140.99745638 445.40223125 140.99525523 C436.16008126 140.99334584 426.91793143 140.99210007 417.67578125 140.99169922 C416.35808602 140.9916349 415.0403908 140.99157058 413.68276541 140.99150431 C392.32133568 140.99134826 370.96004034 141.02004079 349.59864815 141.05843425 C327.664753 141.09710749 305.73103532 141.10160589 283.79712141 141.07515907 C270.26888358 141.059992 256.7412242 141.07199756 243.21305643 141.11879927 C233.94380824 141.1483848 224.67493856 141.1450731 215.40569068 141.11582941 C210.05731436 141.09995221 204.70998386 141.0987273 199.36169624 141.13676643 C194.46339773 141.17129393 189.56696786 141.16423211 184.66872613 141.12437057 C182.89894037 141.11726713 181.12901375 141.12531632 179.35938902 141.15022469 C164.51377596 141.34542119 164.51377596 141.34542119 158.05774498 135.58201599 C156.67734619 134.0797711 155.3198968 132.55567123 154 131 C152.26520886 129.54418203 150.51872617 128.10189527 148.75 126.6875 C144.48268565 123.23157641 140.28696316 119.70613096 136.125 116.125 C127.65039228 108.83588711 119.16639545 101.56104289 110.5 94.5 C102.4427241 87.93524409 94.54055408 81.18866561 86.66162109 74.41162109 C86.07203613 73.90453613 85.48245117 73.39745117 84.875 72.875 C84.28541504 72.36791504 83.69583008 71.86083008 83.08837891 71.33837891 C79.6188848 68.36273551 76.11394133 65.44048283 72.5625 62.5625 C67.45692535 58.41939009 62.50199947 54.1176955 57.54711914 49.79711914 C53.91262149 46.63534162 50.24479157 43.53149794 46.5 40.5 C41.41190794 36.38106834 36.47996177 32.09852666 31.546875 27.796875 C27.91243501 24.63520769 24.24470182 21.53142528 20.5 18.5 C15.86878781 14.74458437 11.32812545 10.89292663 6.8125 7 C6.13960938 6.42314453 5.46671875 5.84628906 4.7734375 5.25195312 C3.16256755 3.8570938 1.57843734 2.43145734 0 1 C0 0.67 0 0.34 0 0 Z " fill="#4F3EFA" transform="translate(328,368)"/>
<path d="M0 0 C60.78260532 -0.03426449 121.56521174 -0.06606543 182.3478241 -0.08468628 C183.24682248 -0.08496239 184.14582086 -0.08523851 185.07206161 -0.08552299 C204.60773844 -0.09150822 224.14341537 -0.09704866 243.67909246 -0.10213066 C253.25879929 -0.10462542 262.8385061 -0.10721852 272.41821289 -0.10986328 C273.37153025 -0.1101248 274.32484761 -0.11038632 275.30705338 -0.11065576 C306.23024236 -0.11918486 337.15342406 -0.13421225 368.07660862 -0.15259444 C399.84303429 -0.17144369 431.60945592 -0.18376718 463.37588708 -0.18782998 C467.8583407 -0.18840633 472.34079431 -0.1890576 476.82324791 -0.18975449 C477.70549565 -0.18988933 478.58774338 -0.19002418 479.4967259 -0.19016311 C493.72258617 -0.19253042 507.94843399 -0.20181695 522.17428918 -0.21366407 C536.46146958 -0.22541557 550.74863759 -0.22994174 565.03582267 -0.22700275 C573.53353714 -0.22547674 582.0312064 -0.22958028 590.52891275 -0.24159509 C596.197077 -0.24906472 601.86521146 -0.24934869 607.53337772 -0.24366363 C610.76834564 -0.24062847 614.00320975 -0.24192656 617.23817215 -0.24976636 C620.71451652 -0.25770629 624.19063375 -0.2535193 627.66697407 -0.24609566 C628.68266542 -0.25134968 629.69835677 -0.25660371 630.74482664 -0.26201695 C631.6660887 -0.25752237 632.58735075 -0.25302778 633.53652984 -0.24839699 C634.73001559 -0.24886493 634.73001559 -0.24886493 635.94761216 -0.24934233 C638 0 638 0 641 2 C633.47242583 3.01311882 626.08668675 3.14056134 618.49729919 3.12698364 C617.13975024 3.12813745 615.78220159 3.12972672 614.42465359 3.13171089 C610.71334965 3.13586887 607.00207156 3.13382949 603.29076755 3.13072467 C599.28035554 3.12845622 595.26994788 3.13195748 591.25953674 3.13470459 C583.40870232 3.13914665 575.55787748 3.13819252 567.70704269 3.13529195 C561.3210473 3.13303066 554.93505459 3.13272855 548.54905891 3.13381577 C547.18401356 3.13404561 547.18401356 3.13404561 545.79139154 3.13428011 C543.94240705 3.13459985 542.09342255 3.13492406 540.24443806 3.1352527 C522.91171209 3.1381032 505.57899141 3.13482778 488.24626631 3.12945233 C473.39879403 3.12498996 458.55132957 3.12575638 443.70385742 3.13037109 C426.44265634 3.13573354 409.1814599 3.13782301 391.9202581 3.13475883 C390.07605589 3.1344403 388.23185366 3.13412593 386.38765144 3.13381577 C385.48040134 3.13366149 384.57315123 3.13350721 383.6384087 3.13334826 C377.26935402 3.13248772 370.90030231 3.13393611 364.53124809 3.13629532 C356.75561904 3.13911231 348.98000007 3.13831542 341.20437216 3.13301457 C337.24292556 3.13040226 333.28149572 3.12933012 329.32004929 3.13266373 C301.60324552 3.15423359 301.60324552 3.15423359 289.0134306 2.18934631 C284.87042946 1.92902441 280.84526497 2.13177048 276.71459961 2.46459961 C265.29670089 3.18800484 253.9324715 2.90547722 242.5014782 2.65147209 C235.37395562 2.49739392 228.24595813 2.37518071 221.11767578 2.26220703 C220.33968892 2.24987608 219.56170205 2.23754514 218.76013982 2.22484052 C196.57959616 1.88299516 174.39751382 1.8979203 152.21484375 1.90234375 C150.62523543 1.90254037 150.62523543 1.90254037 149.00351381 1.90274096 C135.97370903 1.90467192 122.94391776 1.91448122 109.91412032 1.92797434 C98.65541096 1.9394126 87.39670079 1.94471448 76.13798702 1.94967639 C53.09198489 1.95996171 30.04599313 1.97739816 7 2 C7.66 3.98 8.32 5.96 9 8 C7.68388323 7.04663979 6.37221039 6.08714226 5.0625 5.125 C4.33160156 4.59132813 3.60070312 4.05765625 2.84765625 3.5078125 C1 2 1 2 0 0 Z " fill="#B503F7" transform="translate(328,368)"/>
<path d="M0 0 C3.58273331 1.65356922 6.80973467 3.67980703 10 6 C10 6.66 10 7.32 10 8 C-80.09 8 -170.18 8 -263 8 C-262.96039224 84.78454939 -262.96039224 84.78454939 -262.90991211 161.5690918 C-262.90539551 176.40002441 -262.90539551 176.40002441 -262.90455627 183.33699036 C-262.90362241 188.19510858 -262.89986611 193.05321595 -262.89442444 197.91133118 C-262.88758101 204.10260857 -262.88550596 210.2938701 -262.88692772 216.48515093 C-262.88663029 218.76081386 -262.88463815 221.03647732 -262.88078487 223.31213701 C-262.87583057 226.37983909 -262.87700295 229.44747907 -262.87974548 232.5151825 C-262.87683282 233.41084332 -262.87392015 234.30650415 -262.87091923 235.22930622 C-262.88070513 239.28610367 -262.97807407 243.04247924 -264 247 C-264.33 247 -264.66 247 -265 247 C-265.16138569 193.55096207 -264.93758394 140.10433857 -264.61044246 86.65640402 C-264.57256525 80.43779646 -264.53725575 74.21917756 -264.50296021 68.00054932 C-264.46051007 60.32498651 -264.41426639 52.64945739 -264.36322176 44.97394675 C-264.33674176 40.98479248 -264.31181271 36.99564411 -264.29090881 33.00645638 C-264.27145422 29.31353264 -264.24735839 25.62066961 -264.21950519 21.92779994 C-264.20564819 19.93243004 -264.1967061 17.93702792 -264.18788242 15.94162941 C-264.17809329 14.76892683 -264.16830416 13.59622425 -264.15821838 12.38798523 C-264.15176583 11.36495646 -264.14531328 10.3419277 -264.1386652 9.28789806 C-264 7 -264 7 -263 6 C-257.14687061 4.88198836 -251.39720907 4.85940695 -245.45292664 4.87301636 C-244.40296739 4.87145637 -243.35300814 4.86989638 -242.27123195 4.86828911 C-238.75982712 4.86430658 -235.24846568 4.86745809 -231.73706055 4.87060547 C-229.2171374 4.86925025 -226.69721445 4.86746964 -224.17729187 4.86529541 C-218.04874335 4.86120977 -211.92021085 4.86180639 -205.79166212 4.86470805 C-200.81282125 4.86696773 -195.83398382 4.86727216 -190.85514259 4.86618423 C-190.14617599 4.866031 -189.43720939 4.86587777 -188.70675895 4.86571989 C-187.26650915 4.86540017 -185.82625935 4.86507595 -184.38600955 4.8647473 C-170.89079716 4.86189776 -157.39559157 4.86517183 -143.90038029 4.87054767 C-132.31403594 4.87502006 -120.7277016 4.87423517 -109.14135742 4.86962891 C-95.68621033 4.86428219 -82.23106918 4.86216731 -68.77592117 4.86524117 C-67.3425403 4.86555972 -65.90915944 4.86587409 -64.47577858 4.86618423 C-63.77051269 4.86633851 -63.0652468 4.86649279 -62.33860921 4.86665174 C-57.36162454 4.86751624 -52.38464362 4.86605555 -47.40765953 4.86370468 C-40.71740916 4.86061397 -34.02718071 4.86280147 -27.33693123 4.86859894 C-24.87539069 4.86992632 -22.41384857 4.86953278 -19.95230865 4.86733627 C-16.60556888 4.86462411 -13.25889093 4.86800669 -9.91215515 4.87301636 C-8.92667291 4.87078564 -7.94119067 4.86855491 -6.92584532 4.86625659 C-6.03443085 4.86886434 -5.14301638 4.87147209 -4.22458935 4.87415886 C-3.06491942 4.87440239 -3.06491942 4.87440239 -1.88182181 4.87465084 C0 5 0 5 2 6 C1.34 4.02 0.68 2.04 0 0 Z " fill="#342CBB" transform="translate(902,742)"/>
<path d="M0 0 C35.61927384 -0.04574538 71.23854254 -0.08100289 106.85783969 -0.10213066 C111.05993029 -0.10463217 115.26202082 -0.1072208 119.46411133 -0.10986328 C120.30069653 -0.1103879 121.13728174 -0.11091252 121.99921801 -0.11145304 C135.55750627 -0.12016334 149.11577763 -0.13593675 162.67405585 -0.15430559 C176.57887187 -0.17298727 190.48367901 -0.18411305 204.38850707 -0.18817699 C212.97335022 -0.19092565 221.55814559 -0.19961715 230.14297404 -0.21583293 C236.02433384 -0.22637845 241.90566883 -0.22960617 247.78703741 -0.22700275 C251.18381382 -0.22571765 254.58050656 -0.22773228 257.97726822 -0.23841095 C261.65469788 -0.24829505 265.33191961 -0.24599281 269.00935364 -0.24050903 C270.09008064 -0.24633472 271.17080763 -0.2521604 272.28428394 -0.25816262 C273.7562698 -0.25218947 273.7562698 -0.25218947 275.25799274 -0.24609566 C276.10742712 -0.2468551 276.9568615 -0.24761454 277.83203632 -0.24839699 C280 0 280 0 283 2 C276.82467557 2.77727107 270.82339908 3.1421908 264.60362244 3.12025452 C263.25064075 3.12153615 263.25064075 3.12153615 261.8703261 3.12284368 C258.87178197 3.12448043 255.87329477 3.11900687 252.87475586 3.11352539 C250.71582033 3.1132431 248.5568847 3.11340207 246.39794922 3.1139679 C240.55361879 3.11425425 234.70930897 3.10838371 228.86498332 3.10139394 C222.75110018 3.09513341 216.63721654 3.09455446 210.52333069 3.09336853 C198.95322935 3.09026317 187.38313749 3.0820605 175.81304032 3.07201904 C162.63775101 3.06083321 149.46246125 3.05534123 136.28716838 3.05032361 C109.19144034 3.03987723 82.0957207 3.02229319 55 3 C55 2.67 55 2.34 55 2 C36.85 1.67 18.7 1.34 0 1 C0 0.67 0 0.34 0 0 Z " fill="#8C03E9" transform="translate(686,368)"/>
<path d="M0 0 C3.42088371 2.58925508 6.13288574 5.16808044 8.75 8.5625 C11.60869966 12.22034835 14.49177606 15.84916613 17.4375 19.4375 C18.57251953 20.82195312 18.57251953 20.82195312 19.73046875 22.234375 C20.47941406 23.14703125 21.22835938 24.0596875 22 25 C26.04499259 29.93474142 30.08716874 34.87161005 34.10546875 39.828125 C35.21611388 41.19794257 36.32679158 42.56773375 37.4375 43.9375 C37.99518066 44.62529541 38.55286133 45.31309082 39.12744141 46.02172852 C42.42726601 50.08464358 45.75896494 54.11679609 49.125 58.125 C52.6997939 62.38925983 56.15085677 66.73075153 59.5625 71.125 C63.50032214 76.19313571 67.62733336 80.99924182 71.96875 85.73046875 C74.44034824 88.49200448 76.68379271 91.38234672 78.9296875 94.328125 C81.68920461 97.88946406 84.53062664 101.38127463 87.375 104.875 C87.93501709 105.56360107 88.49503418 106.25220215 89.07202148 106.96166992 C91.65149299 110.12975069 94.23730951 113.2922379 96.83984375 116.44140625 C98.06380859 117.92447266 98.06380859 117.92447266 99.3125 119.4375 C100.03050781 120.30246094 100.74851562 121.16742187 101.48828125 122.05859375 C103 124 103 124 103 125 C80.58197475 125.21033535 58.16411243 125.36899514 35.74530029 125.46630955 C25.33556108 125.51269759 14.92643529 125.57592858 4.51708984 125.67895508 C-4.5568079 125.76872109 -13.63026137 125.82673818 -22.7045908 125.84679645 C-27.50870838 125.85852017 -32.31155509 125.8860267 -37.11526489 125.95157051 C-41.63987794 126.01280422 -46.16270077 126.03147666 -50.68768883 126.01796913 C-52.34536163 126.0204389 -54.00309618 126.03826095 -55.66040993 126.07284927 C-68.20714779 126.32178835 -68.20714779 126.32178835 -72.81085205 122.92768669 C-74.80363596 120.709599 -76.4680331 118.55314253 -78 116 C-77.505 115.01 -77.505 115.01 -77 114 C-76.01 114.66 -75.02 115.32 -74 116 C-74 116.66 -74 117.32 -74 118 C-73.34 118 -72.68 118 -72 118 C-71.63769287 118.8142041 -71.27538574 119.6284082 -70.90209961 120.46728516 C-69.14498462 123.41948892 -69.14498462 123.41948892 -65.28344727 123.58349609 C-63.71098397 123.58941922 -62.13826846 123.56731323 -60.56640625 123.5234375 C-59.7147438 123.51909698 -58.86308136 123.51475647 -57.98561096 123.51028442 C-55.17707379 123.48947329 -52.37050633 123.43250789 -49.5625 123.375 C-47.59686303 123.35290362 -45.63120342 123.33274262 -43.66552734 123.31445312 C-31.1059036 123.1765115 -18.54936035 122.83826989 -5.99581909 122.4309082 C7.46139924 121.99427776 20.91107459 121.88685228 34.375 121.875 C35.36578552 121.87250244 36.35657104 121.87000488 37.37738037 121.86743164 C40.19693532 121.86155181 43.0163814 121.86301731 45.8359375 121.8671875 C47.09440491 121.86421158 47.09440491 121.86421158 48.3782959 121.86117554 C52.71150686 121.87833732 56.72120389 122.23970139 61 123 C61.86625 122.835 62.7325 122.67 63.625 122.5 C66.79327931 122.03062529 69.15030554 122.12257477 72.3125 122.4375 C80.20678895 123.21398744 88.07768961 123.08447961 96 123 C96.4569098 118.9991076 96.4569098 118.9991076 94 116.875 C93.34 116.25625 92.68 115.6375 92 115 C92 114.34 92 113.68 92 113 C91.01 112.67 90.02 112.34 89 112 C88.67 111.01 88.34 110.02 88 109 C86.69249374 107.64133045 85.35477684 106.31153928 84 105 C82.55915819 103.31200649 81.1426746 101.60294811 79.75 99.875 C79.04359375 99.00617188 78.3371875 98.13734375 77.609375 97.2421875 C76 95 76 95 76 93 C75.01 92.67 74.02 92.34 73 92 C71.97388051 90.34928604 70.97691857 88.68029994 70 87 C69.278125 86.278125 68.55625 85.55625 67.8125 84.8125 C67.214375 84.214375 66.61625 83.61625 66 83 C66 82.34 66 81.68 66 81 C65.01 80.67 64.02 80.34 63 80 C62.3125 77.9375 62.3125 77.9375 62 76 C61.34 76 60.68 76 60 76 C60 75.34 60 74.68 60 74 C59.34 74 58.68 74 58 74 C55 70.53846154 55 70.53846154 55 68 C54.34 68 53.68 68 53 68 C52.67 67.01 52.34 66.02 52 65 C50.68979962 63.64392827 49.35227655 62.31411707 48 61 C45.73427765 58.28032255 43.52718495 55.51834083 41.31640625 52.75390625 C39.03131817 49.95156873 39.03131817 49.95156873 36.37890625 47.41015625 C34.28550175 45.28925218 32.85108242 43.43555114 31.375 40.875 C29.81071469 38.1768703 28.2311134 36.16960401 26 34 C24.87885349 32.63880952 23.77700672 31.26164492 22.6875 29.875 C18.17222312 24.18255596 13.55225032 18.57928352 8.92456055 12.97802734 C7.7859719 11.59915986 6.64891971 10.21902169 5.51367188 8.83740234 C4.21049368 7.25551217 2.89543153 5.68342565 1.578125 4.11328125 C0 2 0 2 0 0 Z " fill="#0281C7" transform="translate(1060,1088)"/>
<path d="M0 0 C0.33 0.66 0.66 1.32 1 2 C-0.19158628 4.34028771 -1.43314061 6.52274683 -2.8125 8.75 C-3.22048828 9.41741211 -3.62847656 10.08482422 -4.04882812 10.77246094 C-13.76363206 26.45366272 -25.28580954 40.65068809 -38 54 C-38.57024902 54.59893066 -39.14049805 55.19786133 -39.72802734 55.81494141 C-48.25951404 64.7090794 -57.09790877 72.66960515 -67 80 C-68.41732422 81.07507812 -68.41732422 81.07507812 -69.86328125 82.171875 C-109.04333165 111.42933666 -156.77979905 127.47180902 -205.5625 127.23046875 C-207.19559202 127.22960883 -208.82868461 127.22953283 -210.46177673 127.23017883 C-214.76033938 127.22904475 -219.05875787 127.21487815 -223.35728073 127.19723511 C-226.01375312 127.18744934 -228.67020423 127.18165188 -231.32669067 127.17724609 C-257.22630335 127.13412103 -283.11422033 126.91330141 -309 126 C-309 125.67 -309 125.34 -309 125 C-308.39462497 125.00092179 -307.78924994 125.00184359 -307.1655302 125.00279331 C-292.44354669 125.02486617 -277.72156415 125.04142017 -262.99956799 125.05181217 C-255.88015842 125.05697108 -248.7607599 125.06400609 -241.64135742 125.07543945 C-234.77494006 125.08646129 -227.90853419 125.0922791 -221.04210854 125.09487724 C-218.41817354 125.09672957 -215.79423919 125.10034651 -213.17030907 125.10573006 C-209.50439454 125.11295452 -205.83852789 125.11399034 -202.17260742 125.11352539 C-201.0800061 125.11712067 -199.98740479 125.12071594 -198.86169434 125.12442017 C-197.86470016 125.1230455 -196.86770599 125.12167084 -195.84049988 125.12025452 C-194.97309268 125.12117631 -194.10568548 125.1220981 -193.21199322 125.12304783 C-190.82405484 125.08748947 -190.82405484 125.08748947 -188 124 C-186.06118218 124 -184.12229409 124.00209401 -182.18359375 124.0234375 C-176.49230498 123.96235032 -171.37434178 122.86933627 -166 121 C-165.1440625 120.85949219 -164.288125 120.71898437 -163.40625 120.57421875 C-149.79814842 118.28019245 -136.76017893 114.17227743 -124 109 C-122.48019531 108.38898438 -122.48019531 108.38898438 -120.9296875 107.765625 C-119.2885529 107.10534344 -117.64987997 106.43884887 -116.015625 105.76171875 C-114 105 -114 105 -111.796875 104.51953125 C-111.20390625 104.34808594 -110.6109375 104.17664062 -110 104 C-109.67 103.34 -109.34 102.68 -109 102 C-107.15234375 101.3671875 -107.15234375 101.3671875 -104.9375 100.875 C-104.20402344 100.70742187 -103.47054687 100.53984375 -102.71484375 100.3671875 C-102.14894531 100.24601562 -101.58304688 100.12484375 -101 100 C-101 99.34 -101 98.68 -101 98 C-97.535 97.01 -97.535 97.01 -94 96 C-94 95.34 -94 94.68 -94 94 C-93.0925 93.7525 -92.185 93.505 -91.25 93.25 C-87.78427526 91.91702895 -86.56922764 90.58368858 -84 88 C-82.51036358 87.03346229 -80.98674677 86.11778238 -79.4375 85.25 C-72.53282111 81.22397803 -65.56592483 76.78729684 -60 71 C-54.46478873 66 -54.46478873 66 -52 66 C-51.67 65.01 -51.34 64.02 -51 63 C-49.01739574 61.31267723 -47.0167658 59.64633943 -45 58 C-44.34 57.01 -43.68 56.02 -43 55 C-42.34 55 -41.68 55 -41 55 C-40.60941406 54.09894531 -40.60941406 54.09894531 -40.2109375 53.1796875 C-38.91508454 50.84715218 -37.71974148 49.74407966 -35.625 48.125 C-32.33856895 45.42931172 -30.29493539 42.59539877 -28 39 C-27.2575 38.278125 -26.515 37.55625 -25.75 36.8125 C-21.62835627 32.59718255 -18.38837293 27.81282309 -15 23 C-14.61730957 22.46213867 -14.23461914 21.92427734 -13.84033203 21.37011719 C-9.51820916 15.29375247 -5.34940313 9.22039207 -1.875 2.609375 C-1 1 -1 1 0 0 Z " fill="#3D45F3" transform="translate(607,1086)"/>
<path d="M0 0 C1.33988139 4.01964418 0.24610649 5.19859646 -1.578125 8.96875 C-1.86034409 9.55682938 -2.14256317 10.14490875 -2.43333435 10.75080872 C-3.36089979 12.67294787 -4.30421231 14.58676809 -5.25 16.5 C-5.56989899 17.1538266 -5.88979797 17.8076532 -6.21939087 18.48129272 C-16.88046705 40.25951428 -29.2925714 60.51754046 -44.63476562 79.32617188 C-45.51610079 80.40672157 -46.39276396 81.49110671 -47.26367188 82.58007812 C-53.80438193 90.73300688 -61.013331 98.23595093 -68.36148071 105.65802002 C-69.39237678 106.6993562 -70.42109628 107.74285279 -71.44735718 108.78875732 C-78.80814194 116.27131171 -86.55277549 122.77846105 -95 129 C-95.81025635 129.61149902 -96.6205127 130.22299805 -97.45532227 130.85302734 C-106.90868991 137.98179639 -116.51279501 144.39048053 -126.98046875 149.92626953 C-129.08207054 151.0436347 -131.16635414 152.18937899 -133.25 153.33984375 C-141.19947631 157.69032133 -149.1624824 161.48504341 -157.6328125 164.7109375 C-159.87339788 165.56870221 -162.09357265 166.48184733 -164.2890625 167.44921875 C-175.78067613 172.41839278 -188.21319939 175.83904502 -200.4375 178.4375 C-201.57977051 178.68294556 -201.57977051 178.68294556 -202.74511719 178.93334961 C-207.24651613 179.83372983 -211.41080581 180.15115923 -216 180 C-216 179.34 -216 178.68 -216 178 C-215.030625 177.82984375 -214.06125 177.6596875 -213.0625 177.484375 C-191.34986943 173.59812087 -169.25445204 168.16235671 -149.48828125 158.12890625 C-147 157 -147 157 -144.23046875 156.46484375 C-143.49441406 156.31144531 -142.75835938 156.15804687 -142 156 C-141.67 155.34 -141.34 154.68 -141 154 C-138.43500152 152.59452138 -135.87780259 151.27688999 -133.25 150 C-132.53328125 149.64421875 -131.8165625 149.2884375 -131.078125 148.921875 C-128.09372941 147.45162129 -125.1582465 146.06028438 -122.046875 144.875 C-119.82324008 144.18535145 -119.82324008 144.18535145 -119 142 C-116.30393194 140.08279605 -113.66485823 138.32344454 -110.6875 136.875 C-108.8108354 136.11181389 -108.8108354 136.11181389 -108 134 C-107.154375 133.608125 -106.30875 133.21625 -105.4375 132.8125 C-101.6655656 130.82366186 -98.9992387 128.44505852 -95.9296875 125.5234375 C-93.88936669 123.91265791 -92.48823376 123.56647024 -90 123 C-88.71563266 121.0162233 -88.71563266 121.0162233 -88 119 C-87.01 119 -86.02 119 -85 119 C-84.67 118.01 -84.34 117.02 -84 116 C-83.01 116 -82.02 116 -81 116 C-80.6596875 115.1646875 -80.6596875 115.1646875 -80.3125 114.3125 C-78.62622733 111.34144815 -76.469646 109.35477875 -74 107 C-73.113125 106.071875 -72.22625 105.14375 -71.3125 104.1875 C-69 102 -69 102 -67 102 C-66.73501709 101.41283203 -66.47003418 100.82566406 -66.19702148 100.22070312 C-64.96209068 97.92967099 -63.64260112 96.34444532 -61.84765625 94.46875 C-61.23599609 93.82292969 -60.62433594 93.17710937 -59.99414062 92.51171875 C-59.35669922 91.84785156 -58.71925781 91.18398438 -58.0625 90.5 C-56.80158608 89.17879823 -55.5424139 87.85593156 -54.28515625 86.53125 C-53.72707275 85.94923828 -53.16898926 85.36722656 -52.59399414 84.76757812 C-50.92578085 82.98585413 -50.92578085 82.98585413 -49.41967773 80.77929688 C-48.95118408 80.19212891 -48.48269043 79.60496094 -48 79 C-47.34 79 -46.68 79 -46 79 C-45.938125 78.443125 -45.87625 77.88625 -45.8125 77.3125 C-44.67174095 74.06572423 -42.42390092 72.42390092 -40 70 C-38.93348535 68.31908017 -37.99649784 66.61527688 -37.08984375 64.84375 C-35.62645321 62.36804987 -33.79622087 60.24443986 -32 58 C-30.80795452 56.20408938 -29.64125745 54.39110569 -28.5 52.5625 C-26.59432841 49.51996853 -24.68165988 46.50487471 -22.625 43.5625 C-21.15336836 41.24185011 -20.583649 39.62642051 -20 37 C-19.34 36.67 -18.68 36.34 -18 36 C-17.34786708 33.97536745 -17.34786708 33.97536745 -17 32 C-16.34 32 -15.68 32 -15 32 C-14.67 30.845 -14.34 29.69 -14 28.5 C-10.68196701 18.49827376 -5.27441551 9.08568219 0 0 Z " fill="#0787E6" transform="translate(1202,815)"/>
<path d="M0 0 C4.17230166 1.6998266 5.44487313 3.44487313 9 7 C-80.76 7 -170.52 7 -263 7 C-263 6.67 -263 6.34 -263 6 C-257.11872566 4.9812896 -251.41391629 4.85936869 -245.45292664 4.87301636 C-244.40296739 4.87145637 -243.35300814 4.86989638 -242.27123195 4.86828911 C-238.75982712 4.86430658 -235.24846568 4.86745809 -231.73706055 4.87060547 C-229.2171374 4.86925025 -226.69721445 4.86746964 -224.17729187 4.86529541 C-218.04874335 4.86120977 -211.92021085 4.86180639 -205.79166212 4.86470805 C-200.81282125 4.86696773 -195.83398382 4.86727216 -190.85514259 4.86618423 C-190.14617599 4.866031 -189.43720939 4.86587777 -188.70675895 4.86571989 C-187.26650915 4.86540017 -185.82625935 4.86507595 -184.38600955 4.8647473 C-170.89079716 4.86189776 -157.39559157 4.86517183 -143.90038029 4.87054767 C-132.31403594 4.87502006 -120.7277016 4.87423517 -109.14135742 4.86962891 C-95.68621033 4.86428219 -82.23106918 4.86216731 -68.77592117 4.86524117 C-67.3425403 4.86555972 -65.90915944 4.86587409 -64.47577858 4.86618423 C-63.77051269 4.86633851 -63.0652468 4.86649279 -62.33860921 4.86665174 C-57.36162454 4.86751624 -52.38464362 4.86605555 -47.40765953 4.86370468 C-40.71740916 4.86061397 -34.02718071 4.86280147 -27.33693123 4.86859894 C-24.87539069 4.86992632 -22.41384857 4.86953278 -19.95230865 4.86733627 C-16.60556888 4.86462411 -13.25889093 4.86800669 -9.91215515 4.87301636 C-8.92667291 4.87078564 -7.94119067 4.86855491 -6.92584532 4.86625659 C-6.03443085 4.86886434 -5.14301638 4.87147209 -4.22458935 4.87415886 C-3.06491942 4.87440239 -3.06491942 4.87440239 -1.88182181 4.87465084 C0 5 0 5 2 6 C1.34 4.02 0.68 2.04 0 0 Z " fill="#5B24F9" transform="translate(902,742)"/>
<path d="M0 0 C3.5549955 1.4219982 4.36668882 2.63730051 6 6 C6.845625 6.845625 7.69125 7.69125 8.5625 8.5625 C11 11 11 11 12 14 C12.66 14 13.32 14 14 14 C14.103125 14.639375 14.20625 15.27875 14.3125 15.9375 C14.539375 16.618125 14.76625 17.29875 15 18 C15.99 18.33 16.98 18.66 18 19 C19.83203125 21.2578125 19.83203125 21.2578125 21.8125 24.125 C24.57192278 28.03460266 27.39154084 31.72732138 30.55859375 35.30859375 C32.71362904 37.8374021 34.65427062 40.51552427 36.60546875 43.203125 C37.96400069 45.04333448 37.96400069 45.04333448 39.67578125 46.609375 C41 48 41 48 41 50 C41.99 50.33 42.98 50.66 44 51 C44.66666667 52.66666667 45.33333333 54.33333333 46 56 C46.99 56.33 47.98 56.66 49 57 C50.57090273 59.32493603 51.83253158 61.60924036 52.9375 64.1875 C53.87527686 66.16491171 53.87527686 66.16491171 56 67 C58.53552912 68.26776456 58.84919575 69.46823065 60 72 C60.53625 72.53625 61.0725 73.0725 61.625 73.625 C62.07875 74.07875 62.5325 74.5325 63 75 C63 75.66 63 76.32 63 77 C63.99 77.33 64.98 77.66 66 78 C67.02611949 79.65071396 68.02308143 81.31970006 69 83 C69.598125 83.598125 70.19625 84.19625 70.8125 84.8125 C73.40582758 87.40582758 75.47708431 90.23537483 77.6328125 93.1953125 C79.01783581 95.1089274 79.01783581 95.1089274 81 97 C85 101.70588235 85 101.70588235 85 104 C86.485 104.495 86.485 104.495 88 105 C88 105.66 88 106.32 88 107 C89.485 107.495 89.485 107.495 91 108 C91.33 108.99 91.66 109.98 92 111 C93.34411332 112.34411332 94.72034596 113.65678602 96.125 114.9375 C98 117 98 117 98 120 C98.66 120 99.32 120 100 120 C100 120.66 100 121.32 100 122 C100.66 122.33 101.32 122.66 102 123 C101.01 123 100.02 123 99 123 C96.8359375 120.76171875 96.8359375 120.76171875 94.375 117.6875 C93.93551025 117.14424072 93.49602051 116.60098145 93.04321289 116.04125977 C92.13183245 114.9138581 91.22406612 113.78352584 90.31982422 112.65039062 C88.3820061 110.22722183 86.40807845 107.83405586 84.4375 105.4375 C82.95788877 103.6253629 81.47871279 101.81287031 80 100 C75.35909632 94.31708209 70.70776667 88.64315651 66.03955078 82.98266602 C59.19249772 74.67932978 52.3864299 66.34402435 45.60888672 57.98388672 C42.90837253 54.65393553 40.20398205 51.3271353 37.5 48 C36.41664829 46.6666816 35.33331495 45.33334827 34.25 44 C33.71375 43.34 33.1775 42.68 32.625 42 C27.75 36 27.75 36 26.12304688 33.99755859 C25.04627304 32.6723234 23.9694506 31.3471277 22.89257812 30.02197266 C20.08347232 26.56507002 17.27536678 23.10736136 14.46875 19.6484375 C13.88802734 18.93300781 13.30730469 18.21757813 12.70898438 17.48046875 C11.60580375 16.12135022 10.50291769 14.76199251 9.40039062 13.40234375 C8.89701172 12.78230469 8.39363281 12.16226562 7.875 11.5234375 C7.39546875 10.93143555 6.9159375 10.33943359 6.421875 9.72949219 C5.4667671 8.56775037 4.49767952 7.41737434 3.515625 6.27832031 C0 2.19733146 0 2.19733146 0 0 Z " fill="#0392ED" transform="translate(872,1067)"/>
<path d="M0 0 C5.71810241 1.32979126 7.52912262 3.56499001 11 8 C11.66 8 12.32 8 13 8 C13 8.66 13 9.32 13 10 C13.66 10 14.32 10 15 10 C15 10.66 15 11.32 15 12 C15.66 12 16.32 12 17 12 C17.33 12.66 17.66 13.32 18 14 C19.65071396 15.02611949 21.31970006 16.02308143 23 17 C25.3125 18.5625 25.3125 18.5625 27 20 C27 20.66 27 21.32 27 22 C27.66 22 28.32 22 29 22 C29.33 22.66 29.66 23.32 30 24 C30.763125 24.45375 31.52625 24.9075 32.3125 25.375 C34.9904898 26.99424965 36.83702588 28.76244056 39 31 C39.66 31.33 40.32 31.66 41 32 C41 32.66 41 33.32 41 34 C72.68 34 104.36 34 137 34 C137.33 34.66 137.66 35.32 138 36 C125.52580353 36.20896856 113.05202661 36.36866665 100.57643318 36.46630955 C94.78274631 36.51318551 88.99026101 36.57671672 83.19726562 36.67895508 C77.60153356 36.7770886 72.00695356 36.83062973 66.41042709 36.85389519 C64.28053534 36.87046407 62.15070333 36.90282105 60.02130508 36.95157051 C41.2453616 37.36413629 41.2453616 37.36413629 34.79345703 31.59667969 C33.49060784 30.09693762 32.21877231 28.56883279 31 27 C29.26520886 25.54418203 27.51872617 24.10189527 25.75 22.6875 C20.73656813 18.62968672 15.83067712 14.45995458 10.94628906 10.2487793 C10.39038086 9.76965088 9.83447266 9.29052246 9.26171875 8.796875 C8.72337402 8.33216797 8.1850293 7.86746094 7.63037109 7.38867188 C5.96548972 5.9706058 4.27567831 4.58662573 2.58203125 3.203125 C1.72996094 2.47609375 0.87789063 1.7490625 0 1 C0 0.67 0 0.34 0 0 Z " fill="#AF03F9" transform="translate(451,472)"/>
<path d="M0 0 C-1 3 -1 3 -4.25 4.875 C-4.83265625 5.16117187 -5.4153125 5.44734375 -6.015625 5.7421875 C-8.73296285 7.46459456 -10.74761859 9.7099648 -13 12 C-14.6073024 13.33411403 -16.23321156 14.64606205 -17.875 15.9375 C-34.96400801 29.8051843 -51.50441857 45.60687345 -65 63 C-66.5994776 64.96216502 -68.2036717 66.92049453 -69.8125 68.875 C-71.21071596 70.58138378 -72.60666193 72.28963089 -74 74 C-74.68964844 74.84433594 -75.37929687 75.68867188 -76.08984375 76.55859375 C-77.77636948 78.71417367 -79.27953816 80.88233482 -80.75 83.1875 C-84.16885004 88.3946716 -88.04593261 93.19289777 -92 98 C-92 93.85574251 -89.88792576 91.42848052 -87.625 88.125 C-86.94932983 87.12678223 -86.94932983 87.12678223 -86.26000977 86.10839844 C-81.76301538 79.53292186 -76.95824076 73.2318438 -72 67 C-70.94232422 65.65035156 -70.94232422 65.65035156 -69.86328125 64.2734375 C-55.31376179 46.03947411 -38.45486385 28.27748381 -20 14 C-18.0800942 12.42059591 -16.16345672 10.83721106 -14.25 9.25 C-2.92644483 0 -2.92644483 0 0 0 Z " fill="#C904E7" transform="translate(179,107)"/>
<path d="M0 0 C3.42088371 2.58925508 6.13288574 5.16808044 8.75 8.5625 C11.60869966 12.22034835 14.49177606 15.84916613 17.4375 19.4375 C18.19417969 20.36046875 18.95085937 21.2834375 19.73046875 22.234375 C20.47941406 23.14703125 21.22835938 24.0596875 22 25 C26.04499259 29.93474142 30.08716874 34.87161005 34.10546875 39.828125 C35.21611388 41.19794257 36.32679158 42.56773375 37.4375 43.9375 C37.99518066 44.62529541 38.55286133 45.31309082 39.12744141 46.02172852 C42.42726601 50.08464358 45.75896494 54.11679609 49.125 58.125 C52.6997939 62.38925983 56.15085677 66.73075153 59.5625 71.125 C63.50032214 76.19313571 67.62733336 80.99924182 71.96875 85.73046875 C74.43797506 88.4893529 76.67970425 91.37615372 78.921875 94.3203125 C81.72104803 97.92977246 84.6121252 101.4613652 87.5 105 C95.34370442 114.63830822 95.34370442 114.63830822 98.3125 118.375 C98.84488281 119.04273438 99.37726563 119.71046875 99.92578125 120.3984375 C101 122 101 122 101 124 C99.35 123.67 97.7 123.34 96 123 C96 121.68 96 120.36 96 119 C94.70766393 117.62689293 93.37562854 116.28965176 92 115 C92 114.34 92 113.68 92 113 C90.515 112.505 90.515 112.505 89 112 C88.67 111.01 88.34 110.02 88 109 C86.69249374 107.64133045 85.35477684 106.31153928 84 105 C82.55915819 103.31200649 81.1426746 101.60294811 79.75 99.875 C79.04359375 99.00617188 78.3371875 98.13734375 77.609375 97.2421875 C76 95 76 95 76 93 C74.515 92.505 74.515 92.505 73 92 C71.97388051 90.34928604 70.97691857 88.68029994 70 87 C69.278125 86.278125 68.55625 85.55625 67.8125 84.8125 C67.214375 84.214375 66.61625 83.61625 66 83 C66 82.34 66 81.68 66 81 C64.515 80.505 64.515 80.505 63 80 C62.3125 77.9375 62.3125 77.9375 62 76 C61.34 76 60.68 76 60 76 C60 75.34 60 74.68 60 74 C59.34 74 58.68 74 58 74 C55 70.53846154 55 70.53846154 55 68 C54.34 68 53.68 68 53 68 C52.67 67.01 52.34 66.02 52 65 C50.68979962 63.64392827 49.35227655 62.31411707 48 61 C45.73427765 58.28032255 43.52718495 55.51834083 41.31640625 52.75390625 C39.03131817 49.95156873 39.03131817 49.95156873 36.37890625 47.41015625 C34.28550175 45.28925218 32.85108242 43.43555114 31.375 40.875 C29.81071469 38.1768703 28.2311134 36.16960401 26 34 C24.87885349 32.63880952 23.77700672 31.26164492 22.6875 29.875 C18.17222312 24.18255596 13.55225032 18.57928352 8.92456055 12.97802734 C7.7859719 11.59915986 6.64891971 10.21902169 5.51367188 8.83740234 C4.21049368 7.25551217 2.89543153 5.68342565 1.578125 4.11328125 C0 2 0 2 0 0 Z " fill="#0195E2" transform="translate(1060,1088)"/>
<path d="M0 0 C-4.67216652 4.67216652 -20.85033931 3.18437631 -27.23815918 3.20254517 C-31.13230013 3.19822883 -35.0259315 3.16798286 -38.91992188 3.13525391 C-41.0798858 3.12480504 -43.23985433 3.11527411 -45.39982605 3.10658264 C-51.21488813 3.08062029 -57.02980204 3.04195032 -62.84477425 3.00085878 C-68.93989357 2.95999517 -75.03506962 2.93101251 -81.13024902 2.90072632 C-92.65058813 2.84170006 -104.17083783 2.77211295 -115.69109297 2.69865549 C-128.81571744 2.61548786 -141.94039824 2.5442093 -155.06509686 2.47388959 C-182.04348072 2.3290801 -209.02176056 2.16946958 -236 2 C-235.67 3.32 -235.34 4.64 -235 6 C-235.99 6.495 -235.99 6.495 -237 7 C-238.32 5.02 -239.64 3.04 -241 1 C-239.28632091 0.99365209 -239.28632091 0.99365209 -237.53802204 0.98717594 C-209.71053779 0.88387836 -181.88307896 0.77511677 -154.05563831 0.66066074 C-151.37408773 0.64965016 -148.69253706 0.63865984 -146.01098633 0.62768555 C-145.34449865 0.62495724 -144.67801098 0.62222894 -143.99132671 0.61941796 C-133.2204187 0.57542472 -122.44950058 0.53476305 -111.67857496 0.49534739 C-100.61454533 0.45478441 -89.55053477 0.41053644 -78.48653239 0.36312145 C-72.27715351 0.33662656 -66.06777807 0.31177678 -59.85837746 0.29092598 C-54.00700372 0.27122461 -48.15566516 0.24704213 -42.3043232 0.21950912 C-40.16347651 0.21020969 -38.02262214 0.2025095 -35.88176346 0.19658089 C-21.14782197 0.16424559 -21.14782197 0.16424559 -6.45958996 -0.88612461 C-4.05664435 -0.99737745 -2.28072302 -0.72160015 0 0 Z " fill="#4A2CEB" transform="translate(942,857)"/>
<path d="M0 0 C0.495 0.99 0.495 0.99 1 2 C-0.19158628 4.34028771 -1.43314061 6.52274683 -2.8125 8.75 C-3.22048828 9.41741211 -3.62847656 10.08482422 -4.04882812 10.77246094 C-13.76363206 26.45366272 -25.28580954 40.65068809 -38 54 C-38.57024902 54.59893066 -39.14049805 55.19786133 -39.72802734 55.81494141 C-48.25951404 64.7090794 -57.09790877 72.66960515 -67 80 C-68.41732422 81.07507812 -68.41732422 81.07507812 -69.86328125 82.171875 C-79.42426936 89.31148407 -89.60480905 95.34927482 -100.0625 101.0625 C-101.15232178 101.67242798 -101.15232178 101.67242798 -102.26416016 102.29467773 C-107.48883543 105.09190545 -107.48883543 105.09190545 -110.22827148 104.59936523 C-110.81294189 104.40157471 -111.3976123 104.20378418 -112 104 C-111.34 104 -110.68 104 -110 104 C-109.505 103.01 -109.505 103.01 -109 102 C-107.15234375 101.3671875 -107.15234375 101.3671875 -104.9375 100.875 C-104.20402344 100.70742187 -103.47054688 100.53984375 -102.71484375 100.3671875 C-102.14894531 100.24601562 -101.58304687 100.12484375 -101 100 C-101 99.34 -101 98.68 -101 98 C-97.535 97.01 -97.535 97.01 -94 96 C-94 95.34 -94 94.68 -94 94 C-93.0925 93.7525 -92.185 93.505 -91.25 93.25 C-87.78427526 91.91702895 -86.56922764 90.58368858 -84 88 C-82.51036358 87.03346229 -80.98674677 86.11778238 -79.4375 85.25 C-72.53282111 81.22397803 -65.56592483 76.78729684 -60 71 C-54.46478873 66 -54.46478873 66 -52 66 C-51.505 64.515 -51.505 64.515 -51 63 C-49.01739574 61.31267723 -47.0167658 59.64633943 -45 58 C-44.34 57.01 -43.68 56.02 -43 55 C-42.34 55 -41.68 55 -41 55 C-40.73960937 54.39929687 -40.47921875 53.79859375 -40.2109375 53.1796875 C-38.91508454 50.84715218 -37.71974148 49.74407966 -35.625 48.125 C-32.33856895 45.42931172 -30.29493539 42.59539877 -28 39 C-27.2575 38.278125 -26.515 37.55625 -25.75 36.8125 C-21.62835627 32.59718255 -18.38837293 27.81282309 -15 23 C-14.61730957 22.46213867 -14.23461914 21.92427734 -13.84033203 21.37011719 C-9.51820916 15.29375247 -5.34940313 9.22039207 -1.875 2.609375 C-1 1 -1 1 0 0 Z " fill="#1671E9" transform="translate(607,1086)"/>
<path d="M0 0 C3.82502165 1.55834215 6.14783821 4.07215896 9 7 C-6.01311122 7.02345266 -21.02622101 7.04103954 -36.03934669 7.05181217 C-43.01158896 7.05694901 -49.98381977 7.06394141 -56.95605469 7.07543945 C-63.69284598 7.08654384 -70.42962297 7.0922955 -77.1664238 7.09487724 C-79.7282365 7.0967156 -82.29004861 7.10030528 -84.85185623 7.10573006 C-110.6260925 7.1581055 -110.6260925 7.1581055 -122 6 C-122 5.67 -122 5.34 -122 5 C-106.12771946 4.97666186 -90.25544353 4.95901631 -74.3831501 4.94818783 C-67.01372835 4.94302682 -59.64431726 4.93598783 -52.27490234 4.92456055 C-45.853334 4.91460776 -39.43177336 4.90814515 -33.01019752 4.90591151 C-29.60857621 4.90460541 -26.20697696 4.90152594 -22.8053627 4.89426994 C-19.01231811 4.88705518 -15.21931984 4.88600925 -11.42626953 4.88647461 C-10.29266998 4.88287933 -9.15907043 4.87928406 -7.99111938 4.87557983 C-6.96184326 4.8769545 -5.93256714 4.87832916 -4.87210083 4.87974548 C-3.97427446 4.87882369 -3.0764481 4.8779019 -2.15141487 4.87695217 C0 5 0 5 2 6 C1.01 3.03 1.01 3.03 0 0 Z " fill="#3F40F6" transform="translate(902,742)"/>
<path d="M0 0 C0.33 0 0.66 0 1 0 C2.25942975 11.18549356 2.23797269 22.38282289 2.25 33.625 C2.25233643 34.61857513 2.25467285 35.61215027 2.25708008 36.63583374 C2.27096897 52.29066115 1.54760632 67.52690523 -1 83 C-1.33 83 -1.66 83 -2 83 C-2.02705308 80.58325776 -2.04686438 78.1668206 -2.0625 75.75 C-2.07087891 75.06808594 -2.07925781 74.38617187 -2.08789062 73.68359375 C-2.11344614 68.41915664 -2.11344614 68.41915664 -1.5 66.15261841 C-0.85006179 63.35448049 -0.88849711 60.75906188 -0.90234375 57.88623047 C-0.90564697 56.65170135 -0.9089502 55.41717224 -0.91235352 54.14523315 C-0.91647247 53.48880703 -0.92059143 52.83238091 -0.92483521 52.15606308 C-0.93762614 50.09688026 -0.94412096 48.03776201 -0.94897461 45.97854614 C-0.96038573 41.61066836 -0.979641 37.24284403 -1 32.875 C-1.02358377 27.80643218 -1.04397005 22.73789451 -1.05593872 17.66928482 C-1.06243205 15.63844001 -1.07493736 13.60768785 -1.08764648 11.57687378 C-1.09094971 10.34864899 -1.09425293 9.12042419 -1.09765625 7.85498047 C-1.10551147 6.22760452 -1.10551147 6.22760452 -1.11352539 4.56735229 C-1 2 -1 2 0 0 Z " fill="#185DDE" transform="translate(1229,643)"/>
<path d="M0 0 C0.99 0.495 0.99 0.495 2 1 C0.68 1.33 -0.64 1.66 -2 2 C-2 2.66 -2 3.32 -2 4 C-3.05316406 4.4846875 -4.10632813 4.969375 -5.19140625 5.46875 C-13.29958015 9.22866498 -21.2973482 13.08522963 -29.08813477 17.47265625 C-32.37813797 19.28961326 -35.26383797 20.50137687 -39 21 C-39 21.66 -39 22.32 -39 23 C-40.95597184 24.39712274 -42.9659094 25.71927629 -45 27 C-46.03125 27.7425 -47.0625 28.485 -48.125 29.25 C-51 31 -51 31 -55 31 C-55.20625 31.5775 -55.4125 32.155 -55.625 32.75 C-57.49750888 35.81410544 -59.96958519 37.15539968 -63 39 C-63.66 38.67 -64.32 38.34 -65 38 C-60.5405724 32.99375041 -55.22189456 29.71857524 -49.5625 26.1875 C-48.58273193 25.57092529 -47.60296387 24.95435059 -46.59350586 24.3190918 C-36.97547661 18.29862789 -27.46026438 12.44704136 -17 8 C-14.56454849 6.82822307 -12.15677127 5.60443294 -9.75 4.375 C-3.40178571 1.13392857 -3.40178571 1.13392857 0 0 Z " fill="#BD05D9" transform="translate(245,68)"/>
<path d="M0 0 C0 0.33 0 0.66 0 1 C-17.12216198 4.95865922 -17.12216198 4.95865922 -25 6.0625 C-30.54482776 6.85162536 -35.69216369 8.24013229 -41 10 C-46.30567209 11.73806499 -50.47843214 12.19373922 -56 12 C-56 12.66 -56 13.32 -56 14 C-60.50353262 15.75747614 -64.17639811 16.19294408 -69 16 C-50.32075304 6.04979581 -21.13118807 -1.13202793 0 0 Z " fill="#B704D2" transform="translate(339,43)"/>
<path d="M0 0 C0.66 0 1.32 0 2 0 C3.96837346 3.83314831 5.81821268 7.71291268 7.625 11.625 C8.05039063 12.54539062 8.47578125 13.46578125 8.9140625 14.4140625 C10 17 10 17 10.5234375 19.2734375 C10.68070313 19.84320312 10.83796875 20.41296875 11 21 C11.66 21.33 12.32 21.66 13 22 C13.88082308 24.29014001 14.53303769 26.61347727 15.21875 28.96875 C15.80935836 31.18562475 15.80935836 31.18562475 18 32 C19.2890625 33.99609375 19.2890625 33.99609375 20.625 36.4375 C21.07101563 37.24058594 21.51703125 38.04367187 21.9765625 38.87109375 C23 41 23 41 23 43 C23.66 43.33 24.32 43.66 25 44 C25.625 46.0625 25.625 46.0625 26 48 C26.66 48 27.32 48 28 48 C29.22029573 49.87013996 30.35204064 51.79850747 31.4375 53.75 C33.86945547 58.13931941 33.86945547 58.13931941 36.78515625 62.203125 C37.18605469 62.79609375 37.58695313 63.3890625 38 64 C37.505 65.485 37.505 65.485 37 67 C0 12.5835141 0 12.5835141 0 0 Z " fill="#AE03E9" transform="translate(60,531)"/>
<path d="M0 0 C0.495 1.485 0.495 1.485 1 3 C-0.62339805 4.70884005 -2.29319053 6.37446717 -4 8 C-4.66 8 -5.32 8 -6 8 C-6.09442383 8.58193115 -6.18884766 9.1638623 -6.28613281 9.76342773 C-7.16271299 12.5097858 -8.38433997 13.75721267 -10.421875 15.78515625 C-11.11796875 16.48060547 -11.8140625 17.17605469 -12.53125 17.89257812 C-13.2634375 18.60865234 -13.995625 19.32472656 -14.75 20.0625 C-15.46671875 20.78244141 -16.1834375 21.50238281 -16.921875 22.24414062 C-20.44124961 25.72793332 -23.69054122 28.52914674 -28 31 C-29.81511488 32.68262474 -31.58555343 34.41450152 -33.3125 36.1875 C-34.19550781 37.08855469 -35.07851563 37.98960938 -35.98828125 38.91796875 C-36.65214844 39.60503906 -37.31601562 40.29210937 -38 41 C-38.66 40.67 -39.32 40.34 -40 40 C-26.8 26.8 -13.6 13.6 0 0 Z " fill="#0B0015" transform="translate(1006,50)"/>
<path d="M0 0 C1.33988139 4.01964418 0.24610649 5.19859646 -1.578125 8.96875 C-1.86066132 9.55728256 -2.14319763 10.14581512 -2.43429565 10.75218201 C-3.3618101 12.67371854 -4.30490515 14.58705592 -5.25 16.5 C-5.72635895 17.47575485 -5.72635895 17.47575485 -6.21234131 18.47122192 C-12.70210078 31.76271309 -19.68121941 44.75184148 -28 57 C-28.495 55.515 -28.495 55.515 -29 54 C-27.78359197 51.74641314 -26.5417852 49.68293939 -25.125 47.5625 C-22.85011166 44.11134687 -20.90643593 41.0789617 -20 37 C-19.01 36.505 -19.01 36.505 -18 36 C-17.34786708 33.97536745 -17.34786708 33.97536745 -17 32 C-16.34 32 -15.68 32 -15 32 C-14.67 30.845 -14.34 29.69 -14 28.5 C-10.68196701 18.49827376 -5.27441551 9.08568219 0 0 Z " fill="#0781E4" transform="translate(1202,815)"/>
<path d="M0 0 C0.495 1.98 0.495 1.98 1 4 C-0.010625 4.825 -1.02125 5.65 -2.0625 6.5 C-4.66470535 8.72898068 -6.97033949 11.01464846 -9.1875 13.625 C-12.41098246 17.40780818 -15.81846803 20.96906839 -19.3125 24.5 C-19.84061279 25.04092285 -20.36872559 25.5818457 -20.9128418 26.13916016 C-22.23622862 27.46617738 -23.61421511 28.73828386 -25 30 C-25.66 30 -26.32 30 -27 30 C-27.2475 30.5775 -27.495 31.155 -27.75 31.75 C-29.9774005 35.7593209 -33.31059562 38.36471116 -37 41 C-37.66 40.67 -38.32 40.34 -39 40 C-38.58514847 39.58736908 -38.17029694 39.17473816 -37.74287415 38.74960327 C-33.4082825 34.43721141 -29.07727541 30.12124316 -24.74829102 25.80322266 C-23.13429099 24.19423756 -21.51939278 22.58615291 -19.90356445 20.97900391 C-17.57524159 18.66287121 -15.2502153 16.34347215 -12.92578125 14.0234375 C-12.20787918 13.31069672 -11.48997711 12.59795593 -10.75032043 11.86361694 C-6.94469817 8.05841719 -3.36837572 4.19826539 0 0 Z " fill="#9902ED" transform="translate(128,1120)"/>
<path d="M0 0 C3.5549955 1.4219982 4.36668882 2.63730051 6 6 C6.845625 6.845625 7.69125 7.69125 8.5625 8.5625 C11 11 11 11 12 14 C12.66 14 13.32 14 14 14 C14.103125 14.639375 14.20625 15.27875 14.3125 15.9375 C14.539375 16.618125 14.76625 17.29875 15 18 C15.99 18.33 16.98 18.66 18 19 C19.83203125 21.2578125 19.83203125 21.2578125 21.8125 24.125 C24.57192278 28.03460266 27.39154084 31.72732138 30.55859375 35.30859375 C32.71362904 37.8374021 34.65427062 40.51552427 36.60546875 43.203125 C37.96132813 44.9501707 39.40293353 46.47360019 41 48 C40.67 48.99 40.34 49.98 40 51 C34.90220439 44.78253352 29.81920822 38.55328225 24.75 32.3125 C24.20512939 31.6417041 23.66025879 30.9709082 23.09887695 30.27978516 C20.21612524 26.73016891 17.33436905 23.17974634 14.453125 19.62890625 C13.5854248 18.55999146 13.5854248 18.55999146 12.70019531 17.46948242 C11.60024849 16.11445029 10.50061783 14.75916142 9.40136719 13.40356445 C8.89766602 12.78312256 8.39396484 12.16268066 7.875 11.5234375 C7.39546875 10.93143555 6.9159375 10.33943359 6.421875 9.72949219 C5.4667671 8.56775037 4.49767952 7.41737434 3.515625 6.27832031 C0 2.19733146 0 2.19733146 0 0 Z " fill="#0A7BE8" transform="translate(872,1067)"/>
<path d="M0 0 C5.71810241 1.32979126 7.52912262 3.56499001 11 8 C11.66 8 12.32 8 13 8 C13 8.66 13 9.32 13 10 C13.66 10 14.32 10 15 10 C15 10.66 15 11.32 15 12 C15.66 12 16.32 12 17 12 C17.33 12.66 17.66 13.32 18 14 C19.65071396 15.02611949 21.31970006 16.02308143 23 17 C25.3125 18.5625 25.3125 18.5625 27 20 C27 20.66 27 21.32 27 22 C27.66 22 28.32 22 29 22 C29.33 22.66 29.66 23.32 30 24 C30.763125 24.45375 31.52625 24.9075 32.3125 25.375 C34.9904898 26.99424965 36.83702588 28.76244056 39 31 C39.66 31.33 40.32 31.66 41 32 C41 32.66 41 33.32 41 34 C47.27 34 53.54 34 60 34 C60 34.33 60 34.66 60 35 C43.52135722 37.31783784 43.52135722 37.31783784 37.8984375 34.37890625 C35.41565638 32.04573898 33.22473146 29.57866601 31 27 C29.28069099 25.52592986 27.52917504 24.0887289 25.75 22.6875 C20.73656813 18.62968672 15.83067712 14.45995458 10.94628906 10.2487793 C10.39038086 9.76965088 9.83447266 9.29052246 9.26171875 8.796875 C8.72337402 8.33216797 8.1850293 7.86746094 7.63037109 7.38867188 C5.96548972 5.9706058 4.27567831 4.58662573 2.58203125 3.203125 C1.72996094 2.47609375 0.87789063 1.7490625 0 1 C0 0.67 0 0.34 0 0 Z " fill="#A202EA" transform="translate(451,472)"/>
<path d="M0 0 C0.99 0.33 1.98 0.66 3 1 C2.15179688 1.70382813 1.30359375 2.40765625 0.4296875 3.1328125 C-13.23589206 14.58538256 -25.34019518 26.68540496 -36 41 C-36.66 40.67 -37.32 40.34 -38 40 C-36.41727985 37.93702698 -34.83384324 35.87461051 -33.25 33.8125 C-32.8065625 33.23435547 -32.363125 32.65621094 -31.90625 32.06054688 C-31.02652191 30.91560664 -30.14438805 29.77251058 -29.25976562 28.63134766 C-28.09369132 27.12132662 -26.94451322 25.59829858 -25.796875 24.07421875 C-25.20390625 23.38972656 -24.6109375 22.70523437 -24 22 C-23.34 22 -22.68 22 -22 22 C-21.65582031 21.16662109 -21.65582031 21.16662109 -21.3046875 20.31640625 C-19.63977018 17.36043029 -17.54167129 15.31473006 -15.125 12.9375 C-14.26132813 12.08027344 -13.39765625 11.22304687 -12.5078125 10.33984375 C-6.78464107 5 -6.78464107 5 -4 5 C-3.67 4.01 -3.34 3.02 -3 2 C-2.01 1.34 -1.02 0.68 0 0 Z " fill="#C504E9" transform="translate(258,239)"/>
<path d="M0 0 C0 0.33 0 0.66 0 1 C-12.40549269 2.63462763 -24.5340893 3.2759072 -37.0390625 3.1953125 C-38.78453405 3.1915684 -40.53000775 3.18872807 -42.27548218 3.18673706 C-46.80283727 3.17921029 -51.33005782 3.15966032 -55.85736084 3.1373291 C-60.50384706 3.11663023 -65.15035567 3.1076847 -69.796875 3.09765625 C-78.86464147 3.07640052 -87.93230942 3.04240249 -97 3 C-97 2.67 -97 2.34 -97 2 C-96.05452805 1.98969254 -95.10905609 1.97938507 -94.13493347 1.96876526 C-85.23253628 1.87108486 -76.33020981 1.76835583 -67.42792797 1.66066074 C-62.85098367 1.6054542 -58.27403295 1.55203778 -53.69702148 1.50268555 C-49.28144544 1.4550086 -44.86594732 1.4026645 -40.45046425 1.34705925 C-38.76435596 1.32665081 -37.07822631 1.30793522 -35.39208031 1.29092598 C-33.03368779 1.26684855 -30.6754424 1.23679855 -28.31713867 1.20532227 C-27.61726837 1.1995668 -26.91739807 1.19381134 -26.19631958 1.18788147 C-23.19306117 1.14220346 -20.87375125 0.95791708 -18 0 C-15.33333333 0 -12.66666667 0 -10 0 C-6.30581799 -1.231394 -3.7943739 -0.64432764 0 0 Z " fill="#392DC9" transform="translate(437,1210)"/>
<path d="M0 0 C-3.6787039 3.6787039 -15.94233968 3.02709383 -21.02709961 3.13604736 C-25.09381852 3.13522832 -29.15345289 3.07191769 -33.21875 2.9765625 C-34.69802145 2.95029179 -36.1773112 2.92503378 -37.65661621 2.90072632 C-41.49041503 2.83508675 -45.3238135 2.7559942 -49.1572876 2.67376709 C-53.09298713 2.59183957 -57.02891665 2.52309289 -60.96484375 2.453125 C-68.64350755 2.31473649 -76.32179591 2.16208687 -84 2 C-84 1.67 -84 1.34 -84 1 C-83.18948685 0.98969254 -82.37897369 0.97938507 -81.54389954 0.96876526 C-73.8513436 0.87019754 -66.15885619 0.7676072 -58.46641254 0.66066074 C-54.51303357 0.60583526 -50.55964689 0.5524869 -46.60620117 0.50268555 C-42.78061144 0.45443757 -38.95509663 0.40208596 -35.12959862 0.34705925 C-33.68062428 0.3269054 -32.23162965 0.30815342 -30.78261757 0.29092598 C-22.71025411 0.1939458 -14.71291779 -0.0868675 -6.67448425 -0.89002991 C-4.17718505 -0.99271446 -2.36350001 -0.75804985 0 0 Z " fill="#3447EB" transform="translate(942,857)"/>
<path d="M0 0 C0.73828125 1.71875 0.73828125 1.71875 1 4 C-0.58203125 6.21875 -0.58203125 6.21875 -2.8125 8.5 C-5.46674171 11.24349939 -7.39529652 13.54371559 -9 17 C-11 19.25 -11 19.25 -13 21 C-13.66 21 -14.32 21 -15 21 C-15.10199707 21.59707764 -15.20399414 22.19415527 -15.30908203 22.80932617 C-16.53413028 26.6935516 -19.83793363 28.75736333 -22.875 31.3125 C-23.51308594 31.87517578 -24.15117188 32.43785156 -24.80859375 33.01757812 C-25.42605469 33.54416016 -26.04351563 34.07074219 -26.6796875 34.61328125 C-27.52635986 35.33704956 -27.52635986 35.33704956 -28.39013672 36.07543945 C-28.9213916 36.38054443 -29.45264648 36.68564941 -30 37 C-30.99 36.67 -31.98 36.34 -33 36 C-32.23816406 35.31035156 -31.47632813 34.62070312 -30.69140625 33.91015625 C-19.19337395 23.46726391 -8.65334453 12.98001679 0 0 Z " fill="#2251E7" transform="translate(1045,787)"/>
<path d="M0 0 C14.49872899 0.49364619 28.2973521 2.64958013 42.375 6 C43.51820709 6.26889038 43.51820709 6.26889038 44.68450928 6.54321289 C57.60731511 9.60731511 57.60731511 9.60731511 60 12 C52.95127212 11.32869258 46.26988812 10.15033516 39.43359375 8.30859375 C27.80810479 5.2203206 15.82758857 3.30779992 3.83666992 2.36572266 C2 2 2 2 0 0 Z " fill="#7507E7" transform="translate(970,369)"/>
<path d="M0 0 C2.49361571 1.20381448 4.68143083 2.45428722 7 4 C7 4.66 7 5.32 7 6 C7.5775 6.268125 8.155 6.53625 8.75 6.8125 C11.05550043 8.02929189 13.02056192 9.30333879 15 11 C15 11.66 15 12.32 15 13 C15.5775 13.28875 16.155 13.5775 16.75 13.875 C18.83333333 14.91666667 20.91666667 15.95833333 23 17 C23 17.66 23 18.32 23 19 C24.32 19.33 25.64 19.66 27 20 C27 20.66 27 21.32 27 22 C27.5775 22.28875 28.155 22.5775 28.75 22.875 C30.83333333 23.91666667 32.91666667 24.95833333 35 26 C35 26.66 35 27.32 35 28 C35.99 28.33 36.98 28.66 38 29 C37.67 29.66 37.34 30.32 37 31 C28.798516 25.23296226 20.72494618 19.40066969 13 13 C12.44296387 12.54383301 11.88592773 12.08766602 11.31201172 11.61767578 C9.49382643 10.1270474 7.68348468 8.62737692 5.875 7.125 C5.29355225 6.64812744 4.71210449 6.17125488 4.11303711 5.67993164 C2.70359339 4.49764634 1.34643233 3.25357493 0 2 C0 1.34 0 0.68 0 0 Z " fill="#9C02E9" transform="translate(150,655)"/>
<path d="M0 0 C0.33 0 0.66 0 1 0 C2.66910576 5.77008067 1.10383649 8.82259364 -1.625 13.8125 C-1.9960083 14.51810059 -2.3670166 15.22370117 -2.74926758 15.95068359 C-3.8187139 17.97506752 -4.9084952 19.98745608 -6 22 C-6.48597656 22.93457031 -6.97195313 23.86914062 -7.47265625 24.83203125 C-13.19209817 35.62724799 -13.19209817 35.62724799 -18.8125 38.375 C-19.534375 38.58125 -20.25625 38.7875 -21 39 C-20.63648438 38.52691406 -20.27296875 38.05382812 -19.8984375 37.56640625 C-11.38856467 26.37265045 -2.54056268 14.11423711 0 0 Z " fill="#4E17D1" transform="translate(488,983)"/>
<path d="M0 0 C4.17230166 1.6998266 5.44487313 3.44487313 9 7 C-8.49 7 -25.98 7 -44 7 C-44 6.67 -44 6.34 -44 6 C-37.77052061 5.83197214 -31.54087151 5.67204528 -25.31103516 5.51782227 C-23.19054423 5.46436315 -21.07009969 5.40903083 -18.94970703 5.35180664 C-15.90667728 5.27000477 -12.8635458 5.19488102 -9.8203125 5.12109375 C-8.86818878 5.09405869 -7.91606506 5.06702362 -6.93508911 5.03916931 C-6.05432709 5.01907303 -5.17356506 4.99897675 -4.26611328 4.97827148 C-3.48889923 4.95828598 -2.71168518 4.93830048 -1.91091919 4.91770935 C0 5 0 5 2 6 C1.34 4.02 0.68 2.04 0 0 Z " fill="#3357FA" transform="translate(902,742)"/>
<path d="M0 0 C10.57527046 0.80790509 21.15055924 0.65229065 31.75 0.5625 C32.245 1.5525 32.245 1.5525 32.75 2.5625 C17.57 2.5625 2.39 2.5625 -13.25 2.5625 C-8.1378748 0.0064374 -5.59407102 -0.50798179 0 0 Z " fill="#027CC0" transform="translate(1130.25,1210.4375)"/>
<path d="M0 0 C0.66 0.33 1.32 0.66 2 1 C0.23598822 2.98563635 -1.53561883 4.96343656 -3.3125 6.9375 C-3.81201172 7.50146484 -4.31152344 8.06542969 -4.82617188 8.64648438 C-8.66015625 12.88671875 -8.66015625 12.88671875 -12 14 C-12.70122034 15.31548936 -13.36362209 16.65194756 -14 18 C-15.5859375 19.88671875 -15.5859375 19.88671875 -17.375 21.6875 C-17.96023437 22.28949219 -18.54546875 22.89148437 -19.1484375 23.51171875 C-21.14906551 25.11981848 -22.53052012 25.4666205 -25 26 C-20.03805145 20.00499003 -14.6523376 14.53572963 -9.125 9.0625 C-8.24585937 8.18787109 -7.36671875 7.31324219 -6.4609375 6.41210938 C-4.3095654 4.27242952 -2.15588208 2.13513403 0 0 Z " fill="#9804F2" transform="translate(66,1184)"/>
<path d="M0 0 C0.66 0.66 1.32 1.32 2 2 C-4.27 8.27 -10.54 14.54 -17 21 C-17.66 20.34 -18.32 19.68 -19 19 C-15 15 -11 11 -7 7 C-6.113125 6.071875 -5.22625 5.14375 -4.3125 4.1875 C-2 2 -2 2 0 2 C0 1.34 0 0.68 0 0 Z " fill="#05000C" transform="translate(144,1101)"/>
<path d="M0 0 C1.67013418 0.65793165 3.3357865 1.32723284 5 2 C5.61230469 2.24105469 6.22460938 2.48210938 6.85546875 2.73046875 C11.88712807 4.77425614 11.88712807 4.77425614 13 7 C14.88013106 8.12224855 14.88013106 8.12224855 17.0625 9.125 C17.79597656 9.47820313 18.52945313 9.83140625 19.28515625 10.1953125 C20.13400391 10.59363281 20.13400391 10.59363281 21 11 C21 11.66 21 12.32 21 13 C22.32 13 23.64 13 25 13 C25 13.66 25 14.32 25 15 C27.475 15.495 27.475 15.495 30 16 C29.67 16.66 29.34 17.32 29 18 C24.19815203 16.30132256 19.98550998 13.77559989 15.625 11.1875 C14.89539063 10.76146484 14.16578125 10.33542969 13.4140625 9.89648438 C8.76132854 7.15054049 4.31163254 4.25932117 0 1 C0 0.67 0 0.34 0 0 Z " fill="#9902ED" transform="translate(189,686)"/>
<path d="M0 0 C0 3 0 3 -2.37890625 5.63671875 C-3.43345577 6.66053857 -4.49509155 7.67709369 -5.5625 8.6875 C-6.66996422 9.76096598 -7.77543898 10.83648828 -8.87890625 11.9140625 C-9.41660645 12.4390332 -9.95430664 12.96400391 -10.50830078 13.50488281 C-12.99560335 15.9978846 -15.25915807 18.66538673 -17.5 21.37890625 C-19.17655889 23.19081234 -20.98984202 24.57469402 -23 26 C-23.66 25.67 -24.32 25.34 -25 25 C-16.75 16.75 -8.5 8.5 0 0 Z " fill="#9802F1" transform="translate(179,1069)"/>
<path d="M0 0 C1.56427734 0.00966797 1.56427734 0.00966797 3.16015625 0.01953125 C5.9375 0.1875 5.9375 0.1875 8.9375 1.1875 C8.9375 1.8475 8.9375 2.5075 8.9375 3.1875 C16.5275 3.1875 24.1175 3.1875 31.9375 3.1875 C31.9375 3.5175 31.9375 3.8475 31.9375 4.1875 C17.77495864 4.42191945 3.97371618 4.17241946 -10.0625 2.1875 C-6.64075111 0.10146996 -3.9703202 -0.05411837 0 0 Z " fill="#7501D0" transform="translate(358.0625,744.8125)"/>
<path d="M0 0 C0.93972656 0.12568359 0.93972656 0.12568359 1.8984375 0.25390625 C3.12433594 0.40666016 3.12433594 0.40666016 4.375 0.5625 C5.59316406 0.71912109 5.59316406 0.71912109 6.8359375 0.87890625 C9.04899186 1.18237328 9.04899186 1.18237328 11 0 C11.35964844 0.44472656 11.71929688 0.88945313 12.08984375 1.34765625 C15.47589987 4.27669866 19.87574837 5.20552035 24.06640625 6.62109375 C27 8 27 8 28.40234375 10.16015625 C28.69818359 11.07087891 28.69818359 11.07087891 29 12 C24.83709638 10.71484955 21.1482039 9.11902337 17.3125 7.0625 C11.68637758 4.18254497 6.15293139 2.38077594 0 1 C0 0.67 0 0.34 0 0 Z " fill="#6007DC" transform="translate(961,514)"/>
<path d="M0 0 C1.98 0.99 1.98 0.99 4 2 C4 2.66 4 3.32 4 4 C4.66 4 5.32 4 6 4 C6.30550781 4.81855469 6.61101563 5.63710937 6.92578125 6.48046875 C8.71237642 9.20500555 8.71237642 9.20500555 11.30224609 9.41259766 C14.277037 9.49291338 17.21412855 9.43412942 20.1875 9.3125 C21.22326172 9.28994141 22.25902344 9.26738281 23.32617188 9.24414062 C25.88556404 9.18516846 28.44205951 9.10292567 31 9 C31 9.66 31 10.32 31 11 C10.52196298 12.47387447 10.52196298 12.47387447 4.69140625 9.06640625 C0 3.68635321 0 3.68635321 0 0 Z " fill="#0263A5" transform="translate(982,1202)"/>
<path d="M0 0 C0 0.33 0 0.66 0 1 C-13.38365142 2.85057896 -26.49772472 3.24715514 -40 3 C-40 2.67 -40 2.34 -40 2 C-39.44014404 1.97494385 -38.88028809 1.9498877 -38.3034668 1.92407227 C-35.76458695 1.80796255 -33.22606447 1.6853042 -30.6875 1.5625 C-29.36588867 1.50352539 -29.36588867 1.50352539 -28.01757812 1.44335938 C-26.74624023 1.38051758 -26.74624023 1.38051758 -25.44921875 1.31640625 C-24.27879028 1.26141968 -24.27879028 1.26141968 -23.0847168 1.20532227 C-20.80670899 1.05874737 -20.80670899 1.05874737 -18 0 C-15.33333333 0 -12.66666667 0 -10 0 C-6.30581799 -1.231394 -3.7943739 -0.64432764 0 0 Z " fill="#2838C0" transform="translate(437,1210)"/>
<path d="M0 0 C7.84995474 4.95786615 14.90909933 11.02871523 22 17 C18.41648654 17 17.67894268 16.24028157 14.9375 14.0625 C12.10515084 11.81660545 12.10515084 11.81660545 9 10 C9 9.34 9 8.68 9 8 C7.35 7.67 5.7 7.34 4 7 C4 6.01 4 5.02 4 4 C2.68 3.34 1.36 2.68 0 2 C0 1.34 0 0.68 0 0 Z " fill="#2D47E3" transform="translate(880,724)"/>
<path d="M0 0 C0.66 0 1.32 0 2 0 C1.47409178 5.8901721 0.60192923 11.68178677 -0.4375 17.5 C-0.55971924 18.21865234 -0.68193848 18.93730469 -0.80786133 19.67773438 C-1.13701657 21.46573815 -1.56103549 23.23574072 -2 25 C-2.66 25.33 -3.32 25.66 -4 26 C-3.52572253 22.22853482 -3.04474135 18.45795448 -2.5625 14.6875 C-2.42779297 13.61564453 -2.29308594 12.54378906 -2.15429688 11.43945312 C-2.02216797 10.41142578 -1.89003906 9.38339844 -1.75390625 8.32421875 C-1.63345947 7.37635498 -1.5130127 6.42849121 -1.38891602 5.4519043 C-1 3 -1 3 0 0 Z " fill="#BD04E8" transform="translate(186,351)"/>
<path d="M0 0 C1 3 1 3 -0.328125 5.9609375 C-0.96234375 7.08757812 -1.5965625 8.21421875 -2.25 9.375 C-2.87390625 10.49648437 -3.4978125 11.61796875 -4.140625 12.7734375 C-4.75421875 13.83820313 -5.3678125 14.90296875 -6 16 C-6.51046875 16.94101563 -7.0209375 17.88203125 -7.546875 18.8515625 C-9 21 -9 21 -12 22 C-10.2657267 17.02642312 -7.56672043 12.68501047 -4.875 8.1875 C-4.40707031 7.39923828 -3.93914062 6.61097656 -3.45703125 5.79882812 C-2.30784603 3.86397546 -1.15542997 1.93112772 0 0 Z " fill="#B904DA" transform="translate(85,205)"/>
<path d="M0 0 C-3.11816437 3.11816437 -12.67364609 2.74627679 -17 3 C-22.0234598 2.98236609 -27.00662063 2.53090528 -32 2 C-32 1.67 -32 1.34 -32 1 C-28.08621899 0.68858988 -24.17187987 0.38569692 -20.25683594 0.09057617 C-18.27243976 -0.06078835 -16.2885568 -0.21883285 -14.3046875 -0.37695312 C-13.05429687 -0.47041016 -11.80390625 -0.56386719 -10.515625 -0.66015625 C-9.36352539 -0.74918213 -8.21142578 -0.83820801 -7.02441406 -0.92993164 C-4.39199639 -0.99091839 -2.47975995 -0.81150943 0 0 Z " fill="#2A4CDD" transform="translate(942,857)"/>
<path d="M0 0 C0.99 0.33 1.98 0.66 3 1 C4.1875 4.0625 4.1875 4.0625 5 7 C5.66 7 6.32 7 7 7 C7.0825 7.61875 7.165 8.2375 7.25 8.875 C7.78648121 11.15723303 7.78648121 11.15723303 9.875 12 C10.926875 12.495 10.926875 12.495 12 13 C15 16.42857143 15 16.42857143 15 19 C11.88481501 17.65658689 10.19247453 16.33074518 8.203125 13.59375 C7.71972656 12.93246094 7.23632812 12.27117188 6.73828125 11.58984375 C6.00158203 10.55537109 6.00158203 10.55537109 5.25 9.5 C4.49009766 8.46552734 4.49009766 8.46552734 3.71484375 7.41015625 C0 2.27345856 0 2.27345856 0 0 Z " fill="#AD03EF" transform="translate(99,598)"/>
<path d="M0 0 C5.16176409 2.65063562 7.18411042 5.55233127 9 11 C9.99 11 10.98 11 12 11 C15 16.625 15 16.625 15 20 C13.0609583 17.75131288 11.12372378 15.50111139 9.1875 13.25 C8.64029297 12.61578125 8.09308594 11.9815625 7.52929688 11.328125 C0 2.56676136 0 2.56676136 0 0 Z " fill="#1662E7" transform="translate(839,1026)"/>
<path d="M0 0 C0.66 0 1.32 0 2 0 C0.66090112 5.4903054 -1.90695293 9.20717643 -6 13 C-8.875 14.4375 -8.875 14.4375 -11 15 C-10.62488281 14.50371094 -10.24976563 14.00742187 -9.86328125 13.49609375 C-9.09564453 12.47708984 -9.09564453 12.47708984 -8.3125 11.4375 C-7.76722656 10.71433594 -7.22195313 9.99117187 -6.66015625 9.24609375 C-5.14248436 7.19277296 -3.69284145 5.10611782 -2.25 3 C-1.5075 2.01 -0.765 1.02 0 0 Z " fill="#541AE7" transform="translate(478,1007)"/>
<path d="M0 0 C0.33 0.99 0.66 1.98 1 3 C-1.3125 6.1875 -1.3125 6.1875 -4 9 C-4.66 9 -5.32 9 -6 9 C-6 9.66 -6 10.32 -6 11 C-6.66 11 -7.32 11 -8 11 C-8.33 11.66 -8.66 12.32 -9 13 C-9.66 12.34 -10.32 11.68 -11 11 C-7.37 7.37 -3.74 3.74 0 0 Z " fill="#8F02E2" transform="translate(140,1108)"/>
<path d="M0 0 C0.33 0 0.66 0 1 0 C1.21432579 6.64409958 0.51233701 12.53205867 -1 19 C-1.33 19 -1.66 19 -2 19 C-2.05428973 16.77110504 -2.09292338 14.54182529 -2.125 12.3125 C-2.15980469 10.45044922 -2.15980469 10.45044922 -2.1953125 8.55078125 C-2.01032021 5.18762143 -1.45767895 3.0014413 0 0 Z " fill="#BF04E7" transform="translate(34,353)"/>
<path d="M0 0 C0.66 0.33 1.32 0.66 2 1 C0.68 1.33 -0.64 1.66 -2 2 C-2 2.66 -2 3.32 -2 4 C-3.74294678 4.86846831 -5.49468663 5.71930627 -7.25 6.5625 C-8.22453125 7.03816406 -9.1990625 7.51382813 -10.203125 8.00390625 C-13.09856297 9.03510273 -14.19966161 9.11346788 -17 8 C-14.730384 6.85170023 -12.45939222 5.70628022 -10.1875 4.5625 C-9.54490234 4.23701172 -8.90230469 3.91152344 -8.24023438 3.57617188 C-5.51734534 2.20767324 -2.89550206 0.96516735 0 0 Z " fill="#B505CF" transform="translate(245,68)"/>
<path d="M0 0 C0.33 0.99 0.66 1.98 1 3 C-0.43359375 5.04296875 -0.43359375 5.04296875 -2.4375 7.1875 C-3.09621094 7.90292969 -3.75492187 8.61835937 -4.43359375 9.35546875 C-5.20896484 10.16951172 -5.20896484 10.16951172 -6 11 C-7.32 10.67 -8.64 10.34 -10 10 C-6.7 6.7 -3.4 3.4 0 0 Z " fill="#8B03DF" transform="translate(85,1164)"/>
<path d="M0 0 C0.33 0.66 0.66 1.32 1 2 C-0.07826365 3.27513763 -1.16285519 4.54492569 -2.25 5.8125 C-2.85328125 6.52019531 -3.4565625 7.22789063 -4.078125 7.95703125 C-5.92370398 9.91889671 -7.79945332 11.45669625 -10 13 C-10.66 12.67 -11.32 12.34 -12 12 C-8.04 8.04 -4.08 4.08 0 0 Z " fill="#9201E8" transform="translate(153,1095)"/>
<path d="M0 0 C4.15151338 1.44202476 7.29978445 3.5010438 10.8125 6.125 C11.78832031 6.84945312 12.76414062 7.57390625 13.76953125 8.3203125 C14.50558594 8.87460937 15.24164063 9.42890625 16 10 C15.34 10.66 14.68 11.32 14 12 C9.21586287 8.46653832 4.47785614 4.91812412 0 1 C0 0.67 0 0.34 0 0 Z " fill="#A504EF" transform="translate(257,551)"/>
<path d="M0 0 C4.95532767 3.86757281 8.96476648 8.18876004 13 13 C12.34 13.66 11.68 14.32 11 15 C10.37351563 14.21753906 9.74703125 13.43507813 9.1015625 12.62890625 C7.87566406 11.11103516 7.87566406 11.11103516 6.625 9.5625 C5.81289062 8.55316406 5.00078125 7.54382813 4.1640625 6.50390625 C2.24965659 3.96471245 2.24965659 3.96471245 0 3 C0 2.01 0 1.02 0 0 Z " fill="#9F03E0" transform="translate(225,518)"/>
<path d="M0 0 C1.22589844 0.15275391 1.22589844 0.15275391 2.4765625 0.30859375 C3.41628906 0.43427734 3.41628906 0.43427734 4.375 0.5625 C4.375 0.8925 4.375 1.2225 4.375 1.5625 C-1.43266296 3.0681904 -6.6231863 3.78074777 -12.625 3.5625 C-12.295 2.9025 -11.965 2.2425 -11.625 1.5625 C-9.96885343 1.18031233 -8.30042976 0.84854898 -6.625 0.5625 C-4.10446405 -0.69776798 -2.7707902 -0.35624445 0 0 Z " fill="#284FD5" transform="translate(447.625,1206.4375)"/>
<path d="M0 0 C4.37441156 0.48604573 6.11129656 1.73856064 9 5 C9.7425 5.7425 10.485 6.485 11.25 7.25 C11.8275 7.8275 12.405 8.405 13 9 C12.67 9.66 12.34 10.32 12 11 C9.99702215 9.35767739 7.99756092 7.71138756 6 6.0625 C5.42765625 5.59392578 4.8553125 5.12535156 4.265625 4.64257812 C2.82502935 3.45065672 1.41025129 2.22767412 0 1 C0 0.67 0 0.34 0 0 Z " fill="#5411DA" transform="translate(1009,538)"/>
<path d="M0 0 C4 0 4 0 6.6875 2.3125 C9 5 9 5 10 8 C10.66 8 11.32 8 12 8 C12 8.66 12 9.32 12 10 C8.78727751 8.56006357 6.3793336 6.76981628 3.75 4.4375 C3.04359375 3.81746094 2.3371875 3.19742187 1.609375 2.55859375 C1.07828125 2.04425781 0.5471875 1.52992188 0 1 C0 0.67 0 0.34 0 0 Z " fill="#A302E7" transform="translate(406,434)"/>
<path d="M0 0 C0.66 0.33 1.32 0.66 2 1 C2 1.66 2 2.32 2 3 C0.25705322 3.86846831 -1.49468663 4.71930627 -3.25 5.5625 C-4.22453125 6.03816406 -5.1990625 6.51382813 -6.203125 7.00390625 C-9.09856297 8.03510273 -10.19966161 8.11346788 -13 7 C-11.21046815 6.16209211 -9.41830305 5.32980604 -7.625 4.5 C-6.62726563 4.0359375 -5.62953125 3.571875 -4.6015625 3.09375 C-2 2 -2 2 0 2 C0 1.34 0 0.68 0 0 Z " fill="#088FEE" transform="translate(1060,969)"/>
<path d="M0 0 C3.51973101 3.25901019 6.52760275 6.8860931 9 11 C9 11.66 9 12.32 9 13 C7.68 12.67 6.36 12.34 5 12 C4.34 9.69 3.68 7.38 3 5 C2.34 5 1.68 5 1 5 C0.67 3.35 0.34 1.7 0 0 Z " fill="#491ADA" transform="translate(1168,478)"/>
<path d="M0 0 C0.66 0 1.32 0 2 0 C2.99 4.95 3.98 9.9 5 15 C4.34 15 3.68 15 3 15 C2.49564306 13.0636296 1.99666126 11.12585854 1.5 9.1875 C1.2215625 8.10855469 0.943125 7.02960938 0.65625 5.91796875 C0 3 0 3 0 0 Z " fill="#B102E4" transform="translate(39,466)"/>
<path d="M0 0 C0.66 0 1.32 0 2 0 C0.52278578 3.45201639 -1.43794001 5.64961936 -4.125 8.25 C-4.84945312 8.95640625 -5.57390625 9.6628125 -6.3203125 10.390625 C-6.87460937 10.92171875 -7.42890625 11.4528125 -8 12 C-8.33 11.01 -8.66 10.02 -9 9 C-7.37660195 7.29115995 -5.70680947 5.62553283 -4 4 C-3.34 4 -2.68 4 -2 4 C-1.34 2.68 -0.68 1.36 0 0 Z " fill="#9C04F5" transform="translate(962,91)"/>
<path d="M0 0 C0.33 0.99 0.66 1.98 1 3 C-1.85276137 5.93200474 -4.65079784 8.64315404 -8 11 C-8.66 10.67 -9.32 10.34 -10 10 C-6.7 6.7 -3.4 3.4 0 0 Z " fill="#9302E8" transform="translate(99,1150)"/>
<path d="M0 0 C1.32 0.33 2.64 0.66 4 1 C0.7 3.64 -2.6 6.28 -6 9 C-6.33 8.01 -6.66 7.02 -7 6 C-6.34 6 -5.68 6 -5 6 C-4.34 4.68 -3.68 3.36 -3 2 C-2.01 2 -1.02 2 0 2 C0 1.34 0 0.68 0 0 Z " fill="#0685E0" transform="translate(1117,932)"/>
<path d="M0 0 C0.66 0.66 1.32 1.32 2 2 C0.42173185 3.46381359 -1.16282229 4.92085163 -2.75 6.375 C-3.63171875 7.18710938 -4.5134375 7.99921875 -5.421875 8.8359375 C-7.59802521 10.6625848 -9.40820119 11.89787994 -12 13 C-8.19524578 8.43969176 -4.25030379 4.14910608 0 0 Z " fill="#020E24" transform="translate(576,1132)"/>
<path d="M0 0 C0.33 0.66 0.66 1.32 1 2 C3.8159849 2.46898963 3.8159849 2.46898963 7.0625 2.625 C8.71958984 2.73714844 8.71958984 2.73714844 10.41015625 2.8515625 C11.26480469 2.90054687 12.11945312 2.94953125 13 3 C13 3.99 13 4.98 13 6 C10.36 5.67 7.72 5.34 5 5 C5 4.34 5 3.68 5 3 C2.69 2.67 0.38 2.34 -2 2 C-1.34 1.34 -0.68 0.68 0 0 Z " fill="#6605DD" transform="translate(948,508)"/>
<path d="M0 0 C-0.99 0 -1.98 0 -3 0 C-3 0.66 -3 1.32 -3 2 C-7.50353262 3.75747614 -11.17639811 4.19294408 -16 4 C-13.40608858 2.59496465 -10.73026086 1.42294192 -8 0.3125 C-7.34 0.04050781 -6.68 -0.23148438 -6 -0.51171875 C-3.65456399 -1.08433496 -2.26562596 -0.75352292 0 0 Z " fill="#AD05CA" transform="translate(286,55)"/>
<path d="M0 0 C0.99 0.33 1.98 0.66 3 1 C-2.0940919 7.70459519 -2.0940919 7.70459519 -5.875 8.9375 C-6.57625 8.958125 -7.2775 8.97875 -8 9 C-7.01 8.67 -6.02 8.34 -5 8 C-3.94978897 6.15028304 -3.94978897 6.15028304 -3 4 C-2.02418241 2.64886795 -1.02970259 1.31053056 0 0 Z " fill="#078DEA" transform="translate(1126,923)"/>
<path d="M0 0 C5.28 1.32 10.56 2.64 16 4 C11.97207512 5.00698122 10.20921332 4.86376936 6.25 4.0625 C5.26515625 3.86785156 4.2803125 3.67320312 3.265625 3.47265625 C2.51796875 3.31667969 1.7703125 3.16070312 1 3 C0.67 2.01 0.34 1.02 0 0 Z " fill="#7006E7" transform="translate(1014,376)"/>
<path d="M0 0 C0.33 0.99 0.66 1.98 1 3 C-0.21484375 5.26171875 -0.21484375 5.26171875 -1.9375 7.6875 C-2.78634766 8.89986328 -2.78634766 8.89986328 -3.65234375 10.13671875 C-4.09707031 10.75160156 -4.54179688 11.36648437 -5 12 C-5.99 11.67 -6.98 11.34 -8 11 C-5.36 7.37 -2.72 3.74 0 0 Z " fill="#B904D8" transform="translate(102,180)"/>
<path d="M0 0 C0.66 0.66 1.32 1.32 2 2 C-0.31 4.31 -2.62 6.62 -5 9 C-5.99 8.67 -6.98 8.34 -8 8 C-5.36 5.36 -2.72 2.72 0 0 Z " fill="#C005E0" transform="translate(129,149)"/>
<path d="M0 0 C0.66 0.33 1.32 0.66 2 1 C-0.31 3.64 -2.62 6.28 -5 9 C-5.99 8.67 -6.98 8.34 -8 8 C-5.36 5.36 -2.72 2.72 0 0 Z " fill="#C306DF" transform="translate(148,130)"/>
<path d="M0 0 C2.8842454 0.34485543 3.8207818 0.78255407 5.703125 3.06640625 C6.21359375 3.89011719 6.7240625 4.71382812 7.25 5.5625 C8.03117188 6.80193359 8.03117188 6.80193359 8.828125 8.06640625 C9.21484375 8.70449219 9.6015625 9.34257813 10 10 C9.01 10.495 9.01 10.495 8 11 C6.66375099 9.35653302 5.33107149 7.71016314 4 6.0625 C3.2575 5.14597656 2.515 4.22945312 1.75 3.28515625 C0 1 0 1 0 0 Z " fill="#2E46E7" transform="translate(794,972)"/>
<path d="M0 0 C0.66 0 1.32 0 2 0 C2 0.66 2 1.32 2 2 C2.86625 2.37125 2.86625 2.37125 3.75 2.75 C6.3002997 4.16683317 8.01785701 5.87627537 10 8 C6.6875 7.9375 6.6875 7.9375 3 7 C1.40959161 4.71858658 0.83493456 2.70125887 0 0 Z " fill="#3731D8" transform="translate(849,700)"/>
<path d="M0 0 C2.97 0.495 2.97 0.495 6 1 C6 1.66 6 2.32 6 3 C7.32 3.33 8.64 3.66 10 4 C9.67 4.99 9.34 5.98 9 7 C7.4972763 6.02501855 5.99788037 5.04490611 4.5 4.0625 C3.6646875 3.51722656 2.829375 2.97195313 1.96875 2.41015625 C1.3190625 1.94480469 0.669375 1.47945312 0 1 C0 0.67 0 0.34 0 0 Z " fill="#560BD9" transform="translate(997,530)"/>
<path d="M0 0 C3.3 0 6.6 0 10 0 C10 0.99 10 1.98 10 3 C6.7 2.67 3.4 2.34 0 2 C0 1.34 0 0.68 0 0 Z " fill="#7402EF" transform="translate(929,506)"/>
<path d="M0 0 C0.99 0.33 1.98 0.66 3 1 C0.36 2.98 -2.28 4.96 -5 7 C-5.66 6.67 -6.32 6.34 -7 6 C-2.25 1.125 -2.25 1.125 0 0 Z " fill="#C804E2" transform="translate(187,100)"/>
<path d="M0 0 C1.12588014 0.95729916 2.2506715 1.91587895 3.375 2.875 C4.00148438 3.40867187 4.62796875 3.94234375 5.2734375 4.4921875 C6.55836651 5.61432007 7.79371975 6.79371975 9 8 C8.67 8.99 8.34 9.98 8 11 C6.66072279 9.54712339 5.32873153 8.08752741 4 6.625 C3.2575 5.81289062 2.515 5.00078125 1.75 4.1640625 C0 2 0 2 0 0 Z " fill="#029AEE" transform="translate(973,1191)"/>
<path d="M0 0 C0.99 0.33 1.98 0.66 3 1 C0.03 3.97 -2.94 6.94 -6 10 C-6.66 9.67 -7.32 9.34 -8 9 C-5.36 6.03 -2.72 3.06 0 0 Z " fill="#9002E6" transform="translate(197,1050)"/>
<path d="M0 0 C3.8671875 1.6796875 3.8671875 1.6796875 5.0625 4.5625 C5.371875 5.366875 5.68125 6.17125 6 7 C6.99 7.33 7.98 7.66 9 8 C9.33 8.99 9.66 9.98 10 11 C6.31353859 9.54144353 4.83856029 7.69770955 2.75 4.375 C1.96882812 3.14910156 1.96882812 3.14910156 1.171875 1.8984375 C0.78515625 1.27195312 0.3984375 0.64546875 0 0 Z " fill="#3642EA" transform="translate(784,959)"/>
<path d="M0 0 C1.98 0.99 1.98 0.99 4 2 C4 2.66 4 3.32 4 4 C4.66 4 5.32 4 6 4 C6.99 5.98 7.98 7.96 9 10 C4.71095765 8.4114658 2.67654474 5.56872632 0 2 C0 1.34 0 0.68 0 0 Z " fill="#0198ED" transform="translate(982,1202)"/>
<path d="M0 0 C-0.33 0.66 -0.66 1.32 -1 2 C-3.75078884 2.91692961 -5.35948913 3.10886083 -8.1875 3.0625 C-10.0746875 3.0315625 -10.0746875 3.0315625 -12 3 C-7.78372195 0.18914797 -4.97048208 -0.11045516 0 0 Z " fill="#0A8CF0" transform="translate(1011,989)"/>
<path d="M0 0 C2.88437779 1.29299694 4.87219421 2.65941363 7 5 C5.35 5.33 3.7 5.66 2 6 C1.34 4.02 0.68 2.04 0 0 Z " fill="#2E54E9" transform="translate(902,742)"/>
<path d="M0 0 C1.98 0 3.96 0 6 0 C6.68707555 2.49064888 7 4.37886292 7 7 C5.83040013 6.02433888 4.66438823 5.044375 3.5 4.0625 C2.8503125 3.51722656 2.200625 2.97195313 1.53125 2.41015625 C1.0259375 1.94480469 0.520625 1.47945313 0 1 C0 0.67 0 0.34 0 0 Z " fill="#AB05DE" transform="translate(329,369)"/>
<path d="M0 0 C1.8871875 0.0309375 1.8871875 0.0309375 3.8125 0.0625 C0.91157498 1.99645001 -0.08424737 2.36381941 -3.375 2.6875 C-4.633125 2.81125 -5.89125 2.935 -7.1875 3.0625 C-7.1875 2.4025 -7.1875 1.7425 -7.1875 1.0625 C-4.43671116 0.14557039 -2.82801087 -0.04636083 0 0 Z " fill="#C506DF" transform="translate(293.1875,51.9375)"/>
<path d="M0 0 C0.66 0 1.32 0 2 0 C2.99 3.3 3.98 6.6 5 10 C1.64085078 7.76056718 1.18318364 6.73157917 0 3 C0 2.01 0 1.02 0 0 Z " fill="#B402E6" transform="translate(51,508)"/>
<path d="M0 0 C-0.33 0.66 -0.66 1.32 -1 2 C-3.28515625 2.6328125 -3.28515625 2.6328125 -6.0625 3.125 C-6.98160156 3.29257813 -7.90070313 3.46015625 -8.84765625 3.6328125 C-9.91306641 3.81457031 -9.91306641 3.81457031 -11 4 C-11 3.34 -11 2.68 -11 2 C-7.36576791 -0.32590854 -4.22911669 -0.16265833 0 0 Z " fill="#AF05CD" transform="translate(344,201)"/>
<path d="M0 0 C0.33 0.66 0.66 1.32 1 2 C-1.47812494 5.45167403 -2.79606135 7.23163306 -7 8 C-6.02133662 6.85373678 -5.04205413 5.70800212 -4.0625 4.5625 C-3.51722656 3.92441406 -2.97195312 3.28632812 -2.41015625 2.62890625 C-1.63204305 1.73008851 -0.84063472 0.84063472 0 0 Z " fill="#8C05E5" transform="translate(48,1202)"/>
<path d="M0 0 C3.3 0.33 6.6 0.66 10 1 C9.01 1.495 9.01 1.495 8 2 C7.67 2.66 7.34 3.32 7 4 C4.69 3.34 2.38 2.68 0 2 C0 1.34 0 0.68 0 0 Z " fill="#9304E8" transform="translate(352,592)"/>
<path d="M0 0 C0.66 0 1.32 0 2 0 C0.50902342 3.7952131 -1.75700849 5.61042731 -5 8 C-5 7.01 -5 6.02 -5 5 C-4.34 5 -3.68 5 -3 5 C-2.5359375 4.0409375 -2.5359375 4.0409375 -2.0625 3.0625 C-1 1 -1 1 0 0 Z " fill="#9E05F6" transform="translate(943,110)"/>
<path d="M0 0 C1.1875 1.5 1.1875 1.5 2 4 C1.27101296 6.78824238 0.1843275 9.37665092 -1 12 C-2.45606519 7.47907032 -1.27032841 4.48351204 0 0 Z " fill="#4614C5" transform="translate(491,971)"/>
<path d="M0 0 C2.375 0.1875 2.375 0.1875 5 1 C6.3125 3.5625 6.3125 3.5625 7 6 C6.01 6.495 6.01 6.495 5 7 C3.35 4.69 1.7 2.38 0 0 Z " fill="#4C26E7" transform="translate(733,897)"/>
<path d="M0 0 C1.98 0 3.96 0 6 0 C6 1.65 6 3.3 6 5 C5.01 5.495 5.01 5.495 4 6 C2.68 4.02 1.36 2.04 0 0 Z " fill="#5421E2" transform="translate(701,858)"/>
<path d="M0 0 C0.8125 1.6875 0.8125 1.6875 1 4 C-1.4375 6.75 -1.4375 6.75 -4 9 C-2.25 2.25 -2.25 2.25 0 0 Z " fill="#BD04E0" transform="translate(55,268)"/>
<path d="M0 0 C0.99 0.33 1.98 0.66 3 1 C0.03 3.475 0.03 3.475 -3 6 C-3.33 5.01 -3.66 4.02 -4 3 C-2.1875 1.4375 -2.1875 1.4375 0 0 Z " fill="#080012" transform="translate(154,1091)"/>
<path d="M0 0 C4.875 4.625 4.875 4.625 6 8 C2.83884224 6.63016497 2.0072908 6.0109362 0 3 C0 2.01 0 1.02 0 0 Z " fill="#057FDC" transform="translate(994,1006)"/>
<path d="M0 0 C2.5 2.3125 2.5 2.3125 5 5 C5 5.99 5 6.98 5 8 C2.5 5.6875 2.5 5.6875 0 3 C0 2.01 0 1.02 0 0 Z " fill="#3D32E9" transform="translate(766,935)"/>
<path d="M0 0 C0.66 0 1.32 0 2 0 C0.68775452 3.93673644 -0.91910327 6.22719294 -4 9 C-3.35494404 5.51669784 -2.01782732 2.90567134 0 0 Z " fill="#C807ED" transform="translate(218,281)"/>
<path d="M0 0 C0.66 0 1.32 0 2 0 C0.62845496 2.95409701 -0.98863724 5.44008376 -3 8 C-3.66 7.67 -4.32 7.34 -5 7 C-4.21654285 5.82780457 -3.42297164 4.66236332 -2.625 3.5 C-2.18414062 2.8503125 -1.74328125 2.200625 -1.2890625 1.53125 C-0.65097656 0.77328125 -0.65097656 0.77328125 0 0 Z " fill="#BD05E3" transform="translate(225,272)"/>
</svg>
